<mxfile host="Electron" agent="Mozilla/5.0 (Windows NT 10.0; Win64; x64) AppleWebKit/537.36 (KHTML, like Gecko) draw.io/27.0.2 Chrome/134.0.6998.205 Electron/35.3.0 Safari/537.36" version="27.0.2">
  <diagram name="Sida-1" id="IgE08KsWPzN2sCn0RFcz">
    <mxGraphModel dx="1358" dy="825" grid="1" gridSize="10" guides="1" tooltips="1" connect="1" arrows="1" fold="1" page="1" pageScale="1" pageWidth="3300" pageHeight="2339" math="0" shadow="0">
      <root>
        <mxCell id="0" />
        <mxCell id="1" parent="0" />
        <mxCell id="rRAEdFL90UoUVAQAbm-Y-1" value="Main" style="swimlane;whiteSpace=wrap;html=1;fillColor=#d5e8d4;strokeColor=#82b366;" parent="1" vertex="1">
          <mxGeometry x="470" y="40" width="260" height="120" as="geometry" />
        </mxCell>
        <mxCell id="rRAEdFL90UoUVAQAbm-Y-5" style="edgeStyle=orthogonalEdgeStyle;rounded=0;orthogonalLoop=1;jettySize=auto;html=1;entryX=0;entryY=0.5;entryDx=0;entryDy=0;" parent="rRAEdFL90UoUVAQAbm-Y-1" source="rRAEdFL90UoUVAQAbm-Y-2" target="rRAEdFL90UoUVAQAbm-Y-3" edge="1">
          <mxGeometry relative="1" as="geometry" />
        </mxCell>
        <mxCell id="rRAEdFL90UoUVAQAbm-Y-2" value="main" style="rounded=1;whiteSpace=wrap;html=1;fillColor=#f8cecc;strokeColor=#b85450;" parent="rRAEdFL90UoUVAQAbm-Y-1" vertex="1">
          <mxGeometry x="40" y="50" width="80" height="40" as="geometry" />
        </mxCell>
        <mxCell id="rRAEdFL90UoUVAQAbm-Y-3" value="manage_error" style="rounded=1;whiteSpace=wrap;html=1;fillColor=#f5f5f5;fontColor=#333333;strokeColor=#666666;" parent="rRAEdFL90UoUVAQAbm-Y-1" vertex="1">
          <mxGeometry x="140" y="50" width="100" height="40" as="geometry" />
        </mxCell>
        <mxCell id="rRAEdFL90UoUVAQAbm-Y-6" value="initialization" style="swimlane;whiteSpace=wrap;html=1;fillColor=#d5e8d4;strokeColor=#82b366;" parent="1" vertex="1">
          <mxGeometry x="920" y="280" width="160" height="120" as="geometry" />
        </mxCell>
        <mxCell id="SxXDG0kKTUsUEHDS-JWn-1" value="init" style="rounded=1;whiteSpace=wrap;html=1;fillColor=#fff2cc;strokeColor=#d6b656;" parent="rRAEdFL90UoUVAQAbm-Y-6" vertex="1">
          <mxGeometry x="40" y="40" width="80" height="40" as="geometry" />
        </mxCell>
        <mxCell id="SxXDG0kKTUsUEHDS-JWn-2" value="config" style="swimlane;whiteSpace=wrap;html=1;fillColor=#d5e8d4;strokeColor=#82b366;" parent="1" vertex="1">
          <mxGeometry x="1240" y="40" width="400" height="160" as="geometry" />
        </mxCell>
        <mxCell id="SxXDG0kKTUsUEHDS-JWn-6" style="edgeStyle=orthogonalEdgeStyle;rounded=0;orthogonalLoop=1;jettySize=auto;html=1;entryX=0.5;entryY=0;entryDx=0;entryDy=0;" parent="SxXDG0kKTUsUEHDS-JWn-2" source="SxXDG0kKTUsUEHDS-JWn-3" target="SxXDG0kKTUsUEHDS-JWn-4" edge="1">
          <mxGeometry relative="1" as="geometry" />
        </mxCell>
        <mxCell id="SxXDG0kKTUsUEHDS-JWn-7" style="edgeStyle=orthogonalEdgeStyle;rounded=0;orthogonalLoop=1;jettySize=auto;html=1;entryX=0;entryY=0.5;entryDx=0;entryDy=0;" parent="SxXDG0kKTUsUEHDS-JWn-2" source="SxXDG0kKTUsUEHDS-JWn-3" target="SxXDG0kKTUsUEHDS-JWn-5" edge="1">
          <mxGeometry relative="1" as="geometry">
            <Array as="points" />
          </mxGeometry>
        </mxCell>
        <mxCell id="SxXDG0kKTUsUEHDS-JWn-3" value="load_config" style="rounded=1;whiteSpace=wrap;html=1;fillColor=#fff2cc;strokeColor=#d6b656;" parent="SxXDG0kKTUsUEHDS-JWn-2" vertex="1">
          <mxGeometry x="40" y="40" width="100" height="40" as="geometry" />
        </mxCell>
        <mxCell id="SxXDG0kKTUsUEHDS-JWn-4" value="load_pv_diagram" style="rounded=1;whiteSpace=wrap;html=1;fillColor=#f5f5f5;fontColor=#333333;strokeColor=#666666;" parent="SxXDG0kKTUsUEHDS-JWn-2" vertex="1">
          <mxGeometry x="40" y="100" width="100" height="40" as="geometry" />
        </mxCell>
        <mxCell id="SxXDG0kKTUsUEHDS-JWn-5" value="load_consumption_diagram" style="rounded=1;whiteSpace=wrap;html=1;fillColor=#f5f5f5;fontColor=#333333;strokeColor=#666666;" parent="SxXDG0kKTUsUEHDS-JWn-2" vertex="1">
          <mxGeometry x="200" y="40" width="160" height="40" as="geometry" />
        </mxCell>
        <mxCell id="SxXDG0kKTUsUEHDS-JWn-8" style="edgeStyle=orthogonalEdgeStyle;rounded=0;orthogonalLoop=1;jettySize=auto;html=1;entryX=0;entryY=0.5;entryDx=0;entryDy=0;" parent="1" source="SxXDG0kKTUsUEHDS-JWn-1" target="SxXDG0kKTUsUEHDS-JWn-3" edge="1">
          <mxGeometry relative="1" as="geometry">
            <Array as="points">
              <mxPoint x="1180" y="340" />
              <mxPoint x="1180" y="100" />
            </Array>
          </mxGeometry>
        </mxCell>
        <mxCell id="SxXDG0kKTUsUEHDS-JWn-9" value="manager_fox_cloud" style="swimlane;whiteSpace=wrap;html=1;fillColor=#d5e8d4;strokeColor=#82b366;" parent="1" vertex="1">
          <mxGeometry x="1240" y="220" width="1440" height="340" as="geometry" />
        </mxCell>
        <mxCell id="SxXDG0kKTUsUEHDS-JWn-10" value="Fox" style="swimlane;whiteSpace=wrap;html=1;fillColor=#dae8fc;strokeColor=#6c8ebf;" parent="SxXDG0kKTUsUEHDS-JWn-9" vertex="1">
          <mxGeometry x="40" y="120" width="1360" height="200" as="geometry" />
        </mxCell>
        <mxCell id="SxXDG0kKTUsUEHDS-JWn-11" value="new" style="rounded=1;whiteSpace=wrap;html=1;fillColor=#fff2cc;strokeColor=#d6b656;" parent="SxXDG0kKTUsUEHDS-JWn-10" vertex="1">
          <mxGeometry x="40" y="40" width="80" height="40" as="geometry" />
        </mxCell>
        <mxCell id="SxXDG0kKTUsUEHDS-JWn-64" style="edgeStyle=orthogonalEdgeStyle;rounded=0;orthogonalLoop=1;jettySize=auto;html=1;entryX=0.5;entryY=0;entryDx=0;entryDy=0;exitX=0.5;exitY=1;exitDx=0;exitDy=0;" parent="SxXDG0kKTUsUEHDS-JWn-10" source="SxXDG0kKTUsUEHDS-JWn-51" target="SxXDG0kKTUsUEHDS-JWn-59" edge="1">
          <mxGeometry relative="1" as="geometry">
            <Array as="points">
              <mxPoint x="190" y="120" />
              <mxPoint x="610" y="120" />
            </Array>
          </mxGeometry>
        </mxCell>
        <mxCell id="SxXDG0kKTUsUEHDS-JWn-51" value="get_current_soc" style="rounded=1;whiteSpace=wrap;html=1;fillColor=#fff2cc;strokeColor=#d6b656;" parent="SxXDG0kKTUsUEHDS-JWn-10" vertex="1">
          <mxGeometry x="140" y="40" width="100" height="40" as="geometry" />
        </mxCell>
        <mxCell id="SxXDG0kKTUsUEHDS-JWn-65" style="edgeStyle=orthogonalEdgeStyle;rounded=0;orthogonalLoop=1;jettySize=auto;html=1;entryX=0.5;entryY=0;entryDx=0;entryDy=0;exitX=0.5;exitY=1;exitDx=0;exitDy=0;" parent="SxXDG0kKTUsUEHDS-JWn-10" source="SxXDG0kKTUsUEHDS-JWn-52" target="SxXDG0kKTUsUEHDS-JWn-59" edge="1">
          <mxGeometry relative="1" as="geometry">
            <Array as="points">
              <mxPoint x="330" y="120" />
              <mxPoint x="610" y="120" />
            </Array>
          </mxGeometry>
        </mxCell>
        <mxCell id="SxXDG0kKTUsUEHDS-JWn-52" value="set_min_soc_on_grid" style="rounded=1;whiteSpace=wrap;html=1;fillColor=#fff2cc;strokeColor=#d6b656;" parent="SxXDG0kKTUsUEHDS-JWn-10" vertex="1">
          <mxGeometry x="260" y="40" width="140" height="40" as="geometry" />
        </mxCell>
        <mxCell id="SxXDG0kKTUsUEHDS-JWn-66" style="edgeStyle=orthogonalEdgeStyle;rounded=0;orthogonalLoop=1;jettySize=auto;html=1;entryX=0.5;entryY=0;entryDx=0;entryDy=0;exitX=0.5;exitY=1;exitDx=0;exitDy=0;" parent="SxXDG0kKTUsUEHDS-JWn-10" source="SxXDG0kKTUsUEHDS-JWn-53" target="SxXDG0kKTUsUEHDS-JWn-59" edge="1">
          <mxGeometry relative="1" as="geometry">
            <Array as="points">
              <mxPoint x="470" y="120" />
              <mxPoint x="610" y="120" />
            </Array>
          </mxGeometry>
        </mxCell>
        <mxCell id="SxXDG0kKTUsUEHDS-JWn-53" value="set_max_soc" style="rounded=1;whiteSpace=wrap;html=1;fillColor=#fff2cc;strokeColor=#d6b656;" parent="SxXDG0kKTUsUEHDS-JWn-10" vertex="1">
          <mxGeometry x="420" y="40" width="100" height="40" as="geometry" />
        </mxCell>
        <mxCell id="SxXDG0kKTUsUEHDS-JWn-67" style="edgeStyle=orthogonalEdgeStyle;rounded=0;orthogonalLoop=1;jettySize=auto;html=1;" parent="SxXDG0kKTUsUEHDS-JWn-10" source="SxXDG0kKTUsUEHDS-JWn-54" edge="1">
          <mxGeometry relative="1" as="geometry">
            <mxPoint x="610" y="140" as="targetPoint" />
          </mxGeometry>
        </mxCell>
        <mxCell id="SxXDG0kKTUsUEHDS-JWn-68" style="edgeStyle=orthogonalEdgeStyle;rounded=0;orthogonalLoop=1;jettySize=auto;html=1;entryX=0.5;entryY=0;entryDx=0;entryDy=0;exitX=0.75;exitY=1;exitDx=0;exitDy=0;" parent="SxXDG0kKTUsUEHDS-JWn-10" source="SxXDG0kKTUsUEHDS-JWn-54" target="SxXDG0kKTUsUEHDS-JWn-63" edge="1">
          <mxGeometry relative="1" as="geometry">
            <Array as="points">
              <mxPoint x="645" y="100" />
              <mxPoint x="750" y="100" />
            </Array>
          </mxGeometry>
        </mxCell>
        <mxCell id="SxXDG0kKTUsUEHDS-JWn-54" value="get_device_history_data" style="rounded=1;whiteSpace=wrap;html=1;fillColor=#fff2cc;strokeColor=#d6b656;" parent="SxXDG0kKTUsUEHDS-JWn-10" vertex="1">
          <mxGeometry x="540" y="40" width="140" height="40" as="geometry" />
        </mxCell>
        <mxCell id="SxXDG0kKTUsUEHDS-JWn-69" style="edgeStyle=orthogonalEdgeStyle;rounded=0;orthogonalLoop=1;jettySize=auto;html=1;entryX=0.5;entryY=0;entryDx=0;entryDy=0;exitX=0.5;exitY=1;exitDx=0;exitDy=0;" parent="SxXDG0kKTUsUEHDS-JWn-10" source="SxXDG0kKTUsUEHDS-JWn-55" target="SxXDG0kKTUsUEHDS-JWn-59" edge="1">
          <mxGeometry relative="1" as="geometry">
            <Array as="points">
              <mxPoint x="810" y="120" />
              <mxPoint x="610" y="120" />
            </Array>
          </mxGeometry>
        </mxCell>
        <mxCell id="SxXDG0kKTUsUEHDS-JWn-70" style="edgeStyle=orthogonalEdgeStyle;rounded=0;orthogonalLoop=1;jettySize=auto;html=1;entryX=0.5;entryY=0;entryDx=0;entryDy=0;exitX=0.75;exitY=1;exitDx=0;exitDy=0;" parent="SxXDG0kKTUsUEHDS-JWn-10" source="SxXDG0kKTUsUEHDS-JWn-55" target="SxXDG0kKTUsUEHDS-JWn-61" edge="1">
          <mxGeometry relative="1" as="geometry">
            <Array as="points">
              <mxPoint x="865" y="100" />
              <mxPoint x="920" y="100" />
            </Array>
          </mxGeometry>
        </mxCell>
        <mxCell id="SxXDG0kKTUsUEHDS-JWn-55" value="set_battery_charging_time_schedule" style="rounded=1;whiteSpace=wrap;html=1;fillColor=#fff2cc;strokeColor=#d6b656;" parent="SxXDG0kKTUsUEHDS-JWn-10" vertex="1">
          <mxGeometry x="700" y="40" width="220" height="40" as="geometry" />
        </mxCell>
        <mxCell id="SxXDG0kKTUsUEHDS-JWn-71" style="edgeStyle=orthogonalEdgeStyle;rounded=0;orthogonalLoop=1;jettySize=auto;html=1;entryX=1;entryY=0.5;entryDx=0;entryDy=0;" parent="SxXDG0kKTUsUEHDS-JWn-10" source="SxXDG0kKTUsUEHDS-JWn-56" target="SxXDG0kKTUsUEHDS-JWn-55" edge="1">
          <mxGeometry relative="1" as="geometry" />
        </mxCell>
        <mxCell id="SxXDG0kKTUsUEHDS-JWn-56" value="disable_charge_schedule" style="rounded=1;whiteSpace=wrap;html=1;fillColor=#fff2cc;strokeColor=#d6b656;" parent="SxXDG0kKTUsUEHDS-JWn-10" vertex="1">
          <mxGeometry x="940" y="40" width="140" height="40" as="geometry" />
        </mxCell>
        <mxCell id="SxXDG0kKTUsUEHDS-JWn-72" style="edgeStyle=orthogonalEdgeStyle;rounded=0;orthogonalLoop=1;jettySize=auto;html=1;entryX=0.5;entryY=0;entryDx=0;entryDy=0;exitX=0.5;exitY=1;exitDx=0;exitDy=0;" parent="SxXDG0kKTUsUEHDS-JWn-10" source="SxXDG0kKTUsUEHDS-JWn-57" target="SxXDG0kKTUsUEHDS-JWn-59" edge="1">
          <mxGeometry relative="1" as="geometry">
            <Array as="points">
              <mxPoint x="1150" y="120" />
              <mxPoint x="610" y="120" />
            </Array>
          </mxGeometry>
        </mxCell>
        <mxCell id="SxXDG0kKTUsUEHDS-JWn-73" style="edgeStyle=orthogonalEdgeStyle;rounded=0;orthogonalLoop=1;jettySize=auto;html=1;entryX=0.5;entryY=0;entryDx=0;entryDy=0;exitX=0.75;exitY=1;exitDx=0;exitDy=0;" parent="SxXDG0kKTUsUEHDS-JWn-10" source="SxXDG0kKTUsUEHDS-JWn-57" target="SxXDG0kKTUsUEHDS-JWn-62" edge="1">
          <mxGeometry relative="1" as="geometry" />
        </mxCell>
        <mxCell id="SxXDG0kKTUsUEHDS-JWn-57" value="get_device_time" style="rounded=1;whiteSpace=wrap;html=1;fillColor=#fff2cc;strokeColor=#d6b656;" parent="SxXDG0kKTUsUEHDS-JWn-10" vertex="1">
          <mxGeometry x="1100" y="40" width="100" height="40" as="geometry" />
        </mxCell>
        <mxCell id="SxXDG0kKTUsUEHDS-JWn-74" style="edgeStyle=orthogonalEdgeStyle;rounded=0;orthogonalLoop=1;jettySize=auto;html=1;exitX=0.5;exitY=1;exitDx=0;exitDy=0;entryX=0.5;entryY=0;entryDx=0;entryDy=0;" parent="SxXDG0kKTUsUEHDS-JWn-10" source="SxXDG0kKTUsUEHDS-JWn-58" target="SxXDG0kKTUsUEHDS-JWn-59" edge="1">
          <mxGeometry relative="1" as="geometry">
            <mxPoint x="610" y="140" as="targetPoint" />
            <Array as="points">
              <mxPoint x="1270" y="120" />
              <mxPoint x="610" y="120" />
            </Array>
          </mxGeometry>
        </mxCell>
        <mxCell id="SxXDG0kKTUsUEHDS-JWn-58" value="set_device_time" style="rounded=1;whiteSpace=wrap;html=1;fillColor=#fff2cc;strokeColor=#d6b656;" parent="SxXDG0kKTUsUEHDS-JWn-10" vertex="1">
          <mxGeometry x="1220" y="40" width="100" height="40" as="geometry" />
        </mxCell>
        <mxCell id="SxXDG0kKTUsUEHDS-JWn-75" style="edgeStyle=orthogonalEdgeStyle;rounded=0;orthogonalLoop=1;jettySize=auto;html=1;entryX=1;entryY=0.5;entryDx=0;entryDy=0;" parent="SxXDG0kKTUsUEHDS-JWn-10" source="SxXDG0kKTUsUEHDS-JWn-59" target="SxXDG0kKTUsUEHDS-JWn-60" edge="1">
          <mxGeometry relative="1" as="geometry" />
        </mxCell>
        <mxCell id="SxXDG0kKTUsUEHDS-JWn-59" value="post_request" style="rounded=1;whiteSpace=wrap;html=1;fillColor=#f5f5f5;strokeColor=#666666;fontColor=#333333;" parent="SxXDG0kKTUsUEHDS-JWn-10" vertex="1">
          <mxGeometry x="560" y="140" width="100" height="40" as="geometry" />
        </mxCell>
        <mxCell id="SxXDG0kKTUsUEHDS-JWn-60" value="generate_headers" style="rounded=1;whiteSpace=wrap;html=1;fillColor=#f5f5f5;strokeColor=#666666;fontColor=#333333;" parent="SxXDG0kKTUsUEHDS-JWn-10" vertex="1">
          <mxGeometry x="440" y="140" width="100" height="40" as="geometry" />
        </mxCell>
        <mxCell id="SxXDG0kKTUsUEHDS-JWn-61" value="build_charge_time_schedule" style="rounded=1;whiteSpace=wrap;html=1;fillColor=#f5f5f5;strokeColor=#666666;fontColor=#333333;" parent="SxXDG0kKTUsUEHDS-JWn-10" vertex="1">
          <mxGeometry x="840" y="140" width="160" height="40" as="geometry" />
        </mxCell>
        <mxCell id="SxXDG0kKTUsUEHDS-JWn-62" value="device_time_to_date_time" style="rounded=1;whiteSpace=wrap;html=1;fillColor=#f5f5f5;strokeColor=#666666;fontColor=#333333;" parent="SxXDG0kKTUsUEHDS-JWn-10" vertex="1">
          <mxGeometry x="1095" y="140" width="160" height="40" as="geometry" />
        </mxCell>
        <mxCell id="SxXDG0kKTUsUEHDS-JWn-63" value="transform_history_data" style="rounded=1;whiteSpace=wrap;html=1;fillColor=#f5f5f5;strokeColor=#666666;fontColor=#333333;" parent="SxXDG0kKTUsUEHDS-JWn-10" vertex="1">
          <mxGeometry x="680" y="140" width="140" height="40" as="geometry" />
        </mxCell>
        <mxCell id="SxXDG0kKTUsUEHDS-JWn-12" style="edgeStyle=orthogonalEdgeStyle;rounded=0;orthogonalLoop=1;jettySize=auto;html=1;entryX=0;entryY=0.5;entryDx=0;entryDy=0;exitX=1;exitY=0.5;exitDx=0;exitDy=0;" parent="1" source="SxXDG0kKTUsUEHDS-JWn-1" target="SxXDG0kKTUsUEHDS-JWn-11" edge="1">
          <mxGeometry relative="1" as="geometry">
            <Array as="points">
              <mxPoint x="1180" y="340" />
              <mxPoint x="1180" y="400" />
            </Array>
          </mxGeometry>
        </mxCell>
        <mxCell id="SxXDG0kKTUsUEHDS-JWn-13" value="manager_nordpool" style="swimlane;whiteSpace=wrap;html=1;fillColor=#d5e8d4;strokeColor=#82b366;" parent="1" vertex="1">
          <mxGeometry x="1240" y="580" width="840" height="200" as="geometry" />
        </mxCell>
        <mxCell id="SxXDG0kKTUsUEHDS-JWn-15" value="NordPool" style="swimlane;whiteSpace=wrap;html=1;fillColor=#dae8fc;strokeColor=#6c8ebf;" parent="SxXDG0kKTUsUEHDS-JWn-13" vertex="1">
          <mxGeometry x="40" y="60" width="780" height="99" as="geometry" />
        </mxCell>
        <mxCell id="SxXDG0kKTUsUEHDS-JWn-16" value="new" style="rounded=1;whiteSpace=wrap;html=1;fillColor=#fff2cc;strokeColor=#d6b656;" parent="SxXDG0kKTUsUEHDS-JWn-15" vertex="1">
          <mxGeometry x="40" y="39" width="80" height="40" as="geometry" />
        </mxCell>
        <mxCell id="SxXDG0kKTUsUEHDS-JWn-79" style="edgeStyle=orthogonalEdgeStyle;rounded=0;orthogonalLoop=1;jettySize=auto;html=1;entryX=0;entryY=0.5;entryDx=0;entryDy=0;" parent="SxXDG0kKTUsUEHDS-JWn-15" source="SxXDG0kKTUsUEHDS-JWn-76" target="SxXDG0kKTUsUEHDS-JWn-77" edge="1">
          <mxGeometry relative="1" as="geometry" />
        </mxCell>
        <mxCell id="SxXDG0kKTUsUEHDS-JWn-76" value="get_tariffs" style="rounded=1;whiteSpace=wrap;html=1;fillColor=#fff2cc;strokeColor=#d6b656;" parent="SxXDG0kKTUsUEHDS-JWn-15" vertex="1">
          <mxGeometry x="140" y="39" width="80" height="40" as="geometry" />
        </mxCell>
        <mxCell id="SxXDG0kKTUsUEHDS-JWn-80" style="edgeStyle=orthogonalEdgeStyle;rounded=0;orthogonalLoop=1;jettySize=auto;html=1;entryX=0;entryY=0.5;entryDx=0;entryDy=0;" parent="SxXDG0kKTUsUEHDS-JWn-15" source="SxXDG0kKTUsUEHDS-JWn-77" target="SxXDG0kKTUsUEHDS-JWn-78" edge="1">
          <mxGeometry relative="1" as="geometry" />
        </mxCell>
        <mxCell id="SxXDG0kKTUsUEHDS-JWn-77" value="get_day_tariffs" style="rounded=1;whiteSpace=wrap;html=1;fillColor=#f5f5f5;strokeColor=#666666;fontColor=#333333;" parent="SxXDG0kKTUsUEHDS-JWn-15" vertex="1">
          <mxGeometry x="240" y="39" width="100" height="40" as="geometry" />
        </mxCell>
        <mxCell id="4N4IXD-STvBIJI7_eN9E-3" style="edgeStyle=orthogonalEdgeStyle;rounded=0;orthogonalLoop=1;jettySize=auto;html=1;exitX=1;exitY=0.5;exitDx=0;exitDy=0;entryX=0;entryY=0.5;entryDx=0;entryDy=0;" edge="1" parent="SxXDG0kKTUsUEHDS-JWn-15" source="SxXDG0kKTUsUEHDS-JWn-78" target="4N4IXD-STvBIJI7_eN9E-1">
          <mxGeometry relative="1" as="geometry" />
        </mxCell>
        <mxCell id="SxXDG0kKTUsUEHDS-JWn-78" value="tariffs_to_vec" style="rounded=1;whiteSpace=wrap;html=1;fillColor=#f5f5f5;strokeColor=#666666;fontColor=#333333;" parent="SxXDG0kKTUsUEHDS-JWn-15" vertex="1">
          <mxGeometry x="360" y="39" width="100" height="40" as="geometry" />
        </mxCell>
        <mxCell id="4N4IXD-STvBIJI7_eN9E-4" style="edgeStyle=orthogonalEdgeStyle;rounded=0;orthogonalLoop=1;jettySize=auto;html=1;exitX=1;exitY=0.5;exitDx=0;exitDy=0;entryX=0;entryY=0.5;entryDx=0;entryDy=0;" edge="1" parent="SxXDG0kKTUsUEHDS-JWn-15" source="4N4IXD-STvBIJI7_eN9E-1" target="4N4IXD-STvBIJI7_eN9E-2">
          <mxGeometry relative="1" as="geometry" />
        </mxCell>
        <mxCell id="4N4IXD-STvBIJI7_eN9E-1" value="add_vat_markup" style="rounded=1;whiteSpace=wrap;html=1;fillColor=#f5f5f5;strokeColor=#666666;fontColor=#333333;" vertex="1" parent="SxXDG0kKTUsUEHDS-JWn-15">
          <mxGeometry x="480" y="39" width="100" height="40" as="geometry" />
        </mxCell>
        <mxCell id="4N4IXD-STvBIJI7_eN9E-2" value="round_to_two_decimals" style="rounded=1;whiteSpace=wrap;html=1;fillColor=#f5f5f5;strokeColor=#666666;fontColor=#333333;" vertex="1" parent="SxXDG0kKTUsUEHDS-JWn-15">
          <mxGeometry x="600" y="39" width="140" height="40" as="geometry" />
        </mxCell>
        <mxCell id="SxXDG0kKTUsUEHDS-JWn-17" style="edgeStyle=orthogonalEdgeStyle;rounded=0;orthogonalLoop=1;jettySize=auto;html=1;entryX=0;entryY=0.5;entryDx=0;entryDy=0;exitX=1;exitY=0.5;exitDx=0;exitDy=0;" parent="1" source="SxXDG0kKTUsUEHDS-JWn-1" target="SxXDG0kKTUsUEHDS-JWn-16" edge="1">
          <mxGeometry relative="1" as="geometry">
            <Array as="points">
              <mxPoint x="1180" y="340" />
              <mxPoint x="1180" y="699" />
            </Array>
          </mxGeometry>
        </mxCell>
        <mxCell id="SxXDG0kKTUsUEHDS-JWn-18" value="manager_smhi" style="swimlane;whiteSpace=wrap;html=1;fillColor=#d5e8d4;strokeColor=#82b366;" parent="1" vertex="1">
          <mxGeometry x="1240" y="800" width="440" height="200" as="geometry" />
        </mxCell>
        <mxCell id="SxXDG0kKTUsUEHDS-JWn-19" value="SMHI" style="swimlane;whiteSpace=wrap;html=1;fillColor=#dae8fc;strokeColor=#6c8ebf;" parent="SxXDG0kKTUsUEHDS-JWn-18" vertex="1">
          <mxGeometry x="40" y="60" width="380" height="100" as="geometry" />
        </mxCell>
        <mxCell id="SxXDG0kKTUsUEHDS-JWn-20" value="new" style="rounded=1;whiteSpace=wrap;html=1;fillColor=#fff2cc;strokeColor=#d6b656;" parent="SxXDG0kKTUsUEHDS-JWn-19" vertex="1">
          <mxGeometry x="40" y="40" width="80" height="40" as="geometry" />
        </mxCell>
        <mxCell id="SxXDG0kKTUsUEHDS-JWn-83" style="edgeStyle=orthogonalEdgeStyle;rounded=0;orthogonalLoop=1;jettySize=auto;html=1;entryX=0;entryY=0.5;entryDx=0;entryDy=0;" parent="SxXDG0kKTUsUEHDS-JWn-19" source="SxXDG0kKTUsUEHDS-JWn-81" target="SxXDG0kKTUsUEHDS-JWn-82" edge="1">
          <mxGeometry relative="1" as="geometry" />
        </mxCell>
        <mxCell id="SxXDG0kKTUsUEHDS-JWn-81" value="new_forecast" style="rounded=1;whiteSpace=wrap;html=1;fillColor=#fff2cc;strokeColor=#d6b656;" parent="SxXDG0kKTUsUEHDS-JWn-19" vertex="1">
          <mxGeometry x="140" y="40" width="80" height="40" as="geometry" />
        </mxCell>
        <mxCell id="SxXDG0kKTUsUEHDS-JWn-82" value="top_up_forecast" style="rounded=1;whiteSpace=wrap;html=1;fillColor=#f5f5f5;strokeColor=#666666;fontColor=#333333;" parent="SxXDG0kKTUsUEHDS-JWn-19" vertex="1">
          <mxGeometry x="240" y="40" width="100" height="40" as="geometry" />
        </mxCell>
        <mxCell id="SxXDG0kKTUsUEHDS-JWn-21" style="edgeStyle=orthogonalEdgeStyle;rounded=0;orthogonalLoop=1;jettySize=auto;html=1;entryX=0;entryY=0.5;entryDx=0;entryDy=0;" parent="1" source="SxXDG0kKTUsUEHDS-JWn-1" target="SxXDG0kKTUsUEHDS-JWn-20" edge="1">
          <mxGeometry relative="1" as="geometry">
            <Array as="points">
              <mxPoint x="1180" y="340" />
              <mxPoint x="1180" y="920" />
            </Array>
          </mxGeometry>
        </mxCell>
        <mxCell id="SxXDG0kKTUsUEHDS-JWn-22" value="production" style="swimlane;whiteSpace=wrap;html=1;fillColor=#d5e8d4;strokeColor=#82b366;" parent="1" vertex="1">
          <mxGeometry x="1240" y="1020" width="740" height="360" as="geometry" />
        </mxCell>
        <mxCell id="SxXDG0kKTUsUEHDS-JWn-23" value="PVProduction" style="swimlane;whiteSpace=wrap;html=1;fillColor=#dae8fc;strokeColor=#6c8ebf;" parent="SxXDG0kKTUsUEHDS-JWn-22" vertex="1">
          <mxGeometry x="40" y="60" width="680" height="280" as="geometry" />
        </mxCell>
        <mxCell id="SxXDG0kKTUsUEHDS-JWn-24" value="new" style="rounded=1;whiteSpace=wrap;html=1;fillColor=#fff2cc;strokeColor=#d6b656;" parent="SxXDG0kKTUsUEHDS-JWn-23" vertex="1">
          <mxGeometry x="40" y="40" width="80" height="40" as="geometry" />
        </mxCell>
        <mxCell id="SxXDG0kKTUsUEHDS-JWn-90" style="edgeStyle=orthogonalEdgeStyle;rounded=0;orthogonalLoop=1;jettySize=auto;html=1;entryX=0;entryY=0.5;entryDx=0;entryDy=0;" parent="SxXDG0kKTUsUEHDS-JWn-23" source="SxXDG0kKTUsUEHDS-JWn-84" target="SxXDG0kKTUsUEHDS-JWn-85" edge="1">
          <mxGeometry relative="1" as="geometry" />
        </mxCell>
        <mxCell id="SxXDG0kKTUsUEHDS-JWn-84" value="new_estimates" style="rounded=1;whiteSpace=wrap;html=1;fillColor=#fff2cc;strokeColor=#d6b656;" parent="SxXDG0kKTUsUEHDS-JWn-23" vertex="1">
          <mxGeometry x="140" y="40" width="100" height="40" as="geometry" />
        </mxCell>
        <mxCell id="SxXDG0kKTUsUEHDS-JWn-91" style="edgeStyle=orthogonalEdgeStyle;rounded=0;orthogonalLoop=1;jettySize=auto;html=1;entryX=0;entryY=0.5;entryDx=0;entryDy=0;exitX=0.25;exitY=1;exitDx=0;exitDy=0;" parent="SxXDG0kKTUsUEHDS-JWn-23" source="SxXDG0kKTUsUEHDS-JWn-85" target="SxXDG0kKTUsUEHDS-JWn-88" edge="1">
          <mxGeometry relative="1" as="geometry">
            <Array as="points">
              <mxPoint x="305" y="180" />
            </Array>
          </mxGeometry>
        </mxCell>
        <mxCell id="SxXDG0kKTUsUEHDS-JWn-92" style="edgeStyle=orthogonalEdgeStyle;rounded=0;orthogonalLoop=1;jettySize=auto;html=1;entryX=0;entryY=0.5;entryDx=0;entryDy=0;exitX=0.25;exitY=1;exitDx=0;exitDy=0;" parent="SxXDG0kKTUsUEHDS-JWn-23" source="SxXDG0kKTUsUEHDS-JWn-85" target="SxXDG0kKTUsUEHDS-JWn-89" edge="1">
          <mxGeometry relative="1" as="geometry" />
        </mxCell>
        <mxCell id="SxXDG0kKTUsUEHDS-JWn-93" style="edgeStyle=orthogonalEdgeStyle;rounded=0;orthogonalLoop=1;jettySize=auto;html=1;entryX=0;entryY=0.5;entryDx=0;entryDy=0;" parent="SxXDG0kKTUsUEHDS-JWn-23" source="SxXDG0kKTUsUEHDS-JWn-85" target="SxXDG0kKTUsUEHDS-JWn-86" edge="1">
          <mxGeometry relative="1" as="geometry" />
        </mxCell>
        <mxCell id="SxXDG0kKTUsUEHDS-JWn-94" style="edgeStyle=orthogonalEdgeStyle;rounded=0;orthogonalLoop=1;jettySize=auto;html=1;entryX=0;entryY=0.5;entryDx=0;entryDy=0;exitX=0.25;exitY=1;exitDx=0;exitDy=0;" parent="SxXDG0kKTUsUEHDS-JWn-23" source="SxXDG0kKTUsUEHDS-JWn-85" target="SxXDG0kKTUsUEHDS-JWn-87" edge="1">
          <mxGeometry relative="1" as="geometry" />
        </mxCell>
        <mxCell id="SxXDG0kKTUsUEHDS-JWn-85" value="calculate_hour_pv_production" style="rounded=1;whiteSpace=wrap;html=1;fillColor=#f5f5f5;strokeColor=#666666;fontColor=#333333;" parent="SxXDG0kKTUsUEHDS-JWn-23" vertex="1">
          <mxGeometry x="260" y="40" width="180" height="40" as="geometry" />
        </mxCell>
        <mxCell id="SxXDG0kKTUsUEHDS-JWn-86" value="get_max_day_power" style="rounded=1;whiteSpace=wrap;html=1;fillColor=#f5f5f5;strokeColor=#666666;fontColor=#333333;" parent="SxXDG0kKTUsUEHDS-JWn-23" vertex="1">
          <mxGeometry x="460" y="40" width="120" height="40" as="geometry" />
        </mxCell>
        <mxCell id="SxXDG0kKTUsUEHDS-JWn-87" value="get_cloud_factor" style="rounded=1;whiteSpace=wrap;html=1;fillColor=#f5f5f5;strokeColor=#666666;fontColor=#333333;" parent="SxXDG0kKTUsUEHDS-JWn-23" vertex="1">
          <mxGeometry x="460" y="100" width="100" height="40" as="geometry" />
        </mxCell>
        <mxCell id="SxXDG0kKTUsUEHDS-JWn-88" value="get_max_sun_elevation" style="rounded=1;whiteSpace=wrap;html=1;fillColor=#f5f5f5;strokeColor=#666666;fontColor=#333333;" parent="SxXDG0kKTUsUEHDS-JWn-23" vertex="1">
          <mxGeometry x="460" y="160" width="140" height="40" as="geometry" />
        </mxCell>
        <mxCell id="SxXDG0kKTUsUEHDS-JWn-89" value="get_sun_extremes" style="rounded=1;whiteSpace=wrap;html=1;fillColor=#f5f5f5;strokeColor=#666666;fontColor=#333333;" parent="SxXDG0kKTUsUEHDS-JWn-23" vertex="1">
          <mxGeometry x="460" y="220" width="120" height="40" as="geometry" />
        </mxCell>
        <mxCell id="SxXDG0kKTUsUEHDS-JWn-25" style="edgeStyle=orthogonalEdgeStyle;rounded=0;orthogonalLoop=1;jettySize=auto;html=1;entryX=0;entryY=0.5;entryDx=0;entryDy=0;" parent="1" source="SxXDG0kKTUsUEHDS-JWn-1" target="SxXDG0kKTUsUEHDS-JWn-24" edge="1">
          <mxGeometry relative="1" as="geometry">
            <Array as="points">
              <mxPoint x="1180" y="340" />
              <mxPoint x="1180" y="1140" />
            </Array>
          </mxGeometry>
        </mxCell>
        <mxCell id="SxXDG0kKTUsUEHDS-JWn-26" value="consumption" style="swimlane;whiteSpace=wrap;html=1;fillColor=#d5e8d4;strokeColor=#82b366;" parent="1" vertex="1">
          <mxGeometry x="1240" y="1420" width="640" height="200" as="geometry" />
        </mxCell>
        <mxCell id="SxXDG0kKTUsUEHDS-JWn-27" value="Consumption" style="swimlane;whiteSpace=wrap;html=1;fillColor=#dae8fc;strokeColor=#6c8ebf;" parent="SxXDG0kKTUsUEHDS-JWn-26" vertex="1">
          <mxGeometry x="40" y="60" width="560" height="120" as="geometry" />
        </mxCell>
        <mxCell id="SxXDG0kKTUsUEHDS-JWn-28" value="new" style="rounded=1;whiteSpace=wrap;html=1;fillColor=#fff2cc;strokeColor=#d6b656;" parent="SxXDG0kKTUsUEHDS-JWn-27" vertex="1">
          <mxGeometry x="40" y="40" width="80" height="40" as="geometry" />
        </mxCell>
        <mxCell id="SxXDG0kKTUsUEHDS-JWn-183" style="edgeStyle=orthogonalEdgeStyle;rounded=0;orthogonalLoop=1;jettySize=auto;html=1;exitX=1;exitY=0.5;exitDx=0;exitDy=0;entryX=0;entryY=0.5;entryDx=0;entryDy=0;" parent="SxXDG0kKTUsUEHDS-JWn-27" source="SxXDG0kKTUsUEHDS-JWn-180" target="SxXDG0kKTUsUEHDS-JWn-181" edge="1">
          <mxGeometry relative="1" as="geometry" />
        </mxCell>
        <mxCell id="SxXDG0kKTUsUEHDS-JWn-180" value="new_estimates" style="rounded=1;whiteSpace=wrap;html=1;fillColor=#fff2cc;strokeColor=#d6b656;" parent="SxXDG0kKTUsUEHDS-JWn-27" vertex="1">
          <mxGeometry x="140" y="40" width="90" height="40" as="geometry" />
        </mxCell>
        <mxCell id="SxXDG0kKTUsUEHDS-JWn-184" style="edgeStyle=orthogonalEdgeStyle;rounded=0;orthogonalLoop=1;jettySize=auto;html=1;exitX=1;exitY=0.5;exitDx=0;exitDy=0;entryX=0;entryY=0.5;entryDx=0;entryDy=0;" parent="SxXDG0kKTUsUEHDS-JWn-27" source="SxXDG0kKTUsUEHDS-JWn-181" target="SxXDG0kKTUsUEHDS-JWn-182" edge="1">
          <mxGeometry relative="1" as="geometry" />
        </mxCell>
        <mxCell id="SxXDG0kKTUsUEHDS-JWn-181" value="calculate_consumption" style="rounded=1;whiteSpace=wrap;html=1;fillColor=#f5f5f5;strokeColor=#666666;fontColor=#333333;" parent="SxXDG0kKTUsUEHDS-JWn-27" vertex="1">
          <mxGeometry x="250" y="40" width="130" height="40" as="geometry" />
        </mxCell>
        <mxCell id="SxXDG0kKTUsUEHDS-JWn-182" value="consumption_curve" style="rounded=1;whiteSpace=wrap;html=1;fillColor=#f5f5f5;strokeColor=#666666;fontColor=#333333;" parent="SxXDG0kKTUsUEHDS-JWn-27" vertex="1">
          <mxGeometry x="400" y="40" width="120" height="40" as="geometry" />
        </mxCell>
        <mxCell id="SxXDG0kKTUsUEHDS-JWn-29" style="edgeStyle=orthogonalEdgeStyle;rounded=0;orthogonalLoop=1;jettySize=auto;html=1;entryX=0;entryY=0.5;entryDx=0;entryDy=0;" parent="1" source="SxXDG0kKTUsUEHDS-JWn-1" target="SxXDG0kKTUsUEHDS-JWn-28" edge="1">
          <mxGeometry relative="1" as="geometry">
            <Array as="points">
              <mxPoint x="1180" y="340" />
              <mxPoint x="1180" y="1540" />
            </Array>
          </mxGeometry>
        </mxCell>
        <mxCell id="SxXDG0kKTUsUEHDS-JWn-30" value="manager_mail" style="swimlane;whiteSpace=wrap;html=1;fillColor=#d5e8d4;strokeColor=#82b366;" parent="1" vertex="1">
          <mxGeometry x="680" y="280" width="200" height="220" as="geometry" />
        </mxCell>
        <mxCell id="SxXDG0kKTUsUEHDS-JWn-31" value="Mail" style="swimlane;whiteSpace=wrap;html=1;fillColor=#dae8fc;strokeColor=#6c8ebf;" parent="SxXDG0kKTUsUEHDS-JWn-30" vertex="1">
          <mxGeometry x="20" y="40" width="160" height="160" as="geometry" />
        </mxCell>
        <mxCell id="SxXDG0kKTUsUEHDS-JWn-32" value="new" style="rounded=1;whiteSpace=wrap;html=1;fillColor=#fff2cc;strokeColor=#d6b656;" parent="SxXDG0kKTUsUEHDS-JWn-31" vertex="1">
          <mxGeometry x="40" y="40" width="80" height="40" as="geometry" />
        </mxCell>
        <mxCell id="SxXDG0kKTUsUEHDS-JWn-127" value="send_mail" style="rounded=1;whiteSpace=wrap;html=1;fillColor=#fff2cc;strokeColor=#d6b656;" parent="SxXDG0kKTUsUEHDS-JWn-31" vertex="1">
          <mxGeometry x="40" y="100" width="80" height="40" as="geometry" />
        </mxCell>
        <mxCell id="SxXDG0kKTUsUEHDS-JWn-34" value="scheduling" style="swimlane;whiteSpace=wrap;html=1;fillColor=#d5e8d4;strokeColor=#82b366;" parent="1" vertex="1">
          <mxGeometry x="1240" y="1640" width="1120" height="680" as="geometry" />
        </mxCell>
        <mxCell id="SxXDG0kKTUsUEHDS-JWn-35" value="Schedule" style="swimlane;whiteSpace=wrap;html=1;fillColor=#dae8fc;strokeColor=#6c8ebf;" parent="SxXDG0kKTUsUEHDS-JWn-34" vertex="1">
          <mxGeometry x="40" y="280" width="1040" height="380" as="geometry" />
        </mxCell>
        <mxCell id="SxXDG0kKTUsUEHDS-JWn-36" value="new" style="rounded=1;whiteSpace=wrap;html=1;fillColor=#fff2cc;strokeColor=#d6b656;" parent="SxXDG0kKTUsUEHDS-JWn-35" vertex="1">
          <mxGeometry x="40" y="40" width="80" height="40" as="geometry" />
        </mxCell>
        <mxCell id="SxXDG0kKTUsUEHDS-JWn-136" value="update_block_status" style="rounded=1;whiteSpace=wrap;html=1;fillColor=#fff2cc;strokeColor=#d6b656;" parent="SxXDG0kKTUsUEHDS-JWn-35" vertex="1">
          <mxGeometry x="40" y="100" width="120" height="40" as="geometry" />
        </mxCell>
        <mxCell id="SxXDG0kKTUsUEHDS-JWn-137" value="get_block" style="rounded=1;whiteSpace=wrap;html=1;fillColor=#fff2cc;strokeColor=#d6b656;" parent="SxXDG0kKTUsUEHDS-JWn-35" vertex="1">
          <mxGeometry x="40" y="160" width="70" height="40" as="geometry" />
        </mxCell>
        <mxCell id="SxXDG0kKTUsUEHDS-JWn-150" value="update_block" style="rounded=1;whiteSpace=wrap;html=1;fillColor=#fff2cc;strokeColor=#d6b656;" parent="SxXDG0kKTUsUEHDS-JWn-35" vertex="1">
          <mxGeometry x="40" y="220" width="80" height="40" as="geometry" />
        </mxCell>
        <mxCell id="SxXDG0kKTUsUEHDS-JWn-155" style="edgeStyle=orthogonalEdgeStyle;rounded=0;orthogonalLoop=1;jettySize=auto;html=1;entryX=0.5;entryY=0;entryDx=0;entryDy=0;" parent="SxXDG0kKTUsUEHDS-JWn-35" source="SxXDG0kKTUsUEHDS-JWn-135" target="SxXDG0kKTUsUEHDS-JWn-149" edge="1">
          <mxGeometry relative="1" as="geometry" />
        </mxCell>
        <mxCell id="SxXDG0kKTUsUEHDS-JWn-156" style="edgeStyle=orthogonalEdgeStyle;rounded=0;orthogonalLoop=1;jettySize=auto;html=1;entryX=0;entryY=0.5;entryDx=0;entryDy=0;" parent="SxXDG0kKTUsUEHDS-JWn-35" source="SxXDG0kKTUsUEHDS-JWn-135" target="SxXDG0kKTUsUEHDS-JWn-138" edge="1">
          <mxGeometry relative="1" as="geometry" />
        </mxCell>
        <mxCell id="SxXDG0kKTUsUEHDS-JWn-135" value="update_scheduling" style="rounded=1;whiteSpace=wrap;html=1;fillColor=#fff2cc;strokeColor=#d6b656;" parent="SxXDG0kKTUsUEHDS-JWn-35" vertex="1">
          <mxGeometry x="170" y="40" width="110" height="40" as="geometry" />
        </mxCell>
        <mxCell id="SxXDG0kKTUsUEHDS-JWn-138" value="seek_best" style="rounded=1;whiteSpace=wrap;html=1;fillColor=#f5f5f5;strokeColor=#666666;fontColor=#333333;" parent="SxXDG0kKTUsUEHDS-JWn-35" vertex="1">
          <mxGeometry x="300" y="40" width="70" height="40" as="geometry" />
        </mxCell>
        <mxCell id="SxXDG0kKTUsUEHDS-JWn-149" value="transform_tariffs" style="rounded=1;whiteSpace=wrap;html=1;fillColor=#f5f5f5;strokeColor=#666666;fontColor=#333333;" parent="SxXDG0kKTUsUEHDS-JWn-35" vertex="1">
          <mxGeometry x="180" y="120" width="90" height="40" as="geometry" />
        </mxCell>
        <mxCell id="SxXDG0kKTUsUEHDS-JWn-141" value="get_charge_block" style="rounded=1;whiteSpace=wrap;html=1;fillColor=#f5f5f5;strokeColor=#666666;fontColor=#333333;" parent="SxXDG0kKTUsUEHDS-JWn-35" vertex="1">
          <mxGeometry x="700" y="100" width="110" height="40" as="geometry" />
        </mxCell>
        <mxCell id="SxXDG0kKTUsUEHDS-JWn-171" style="edgeStyle=orthogonalEdgeStyle;rounded=0;orthogonalLoop=1;jettySize=auto;html=1;entryX=0;entryY=0.75;entryDx=0;entryDy=0;" parent="SxXDG0kKTUsUEHDS-JWn-35" source="SxXDG0kKTUsUEHDS-JWn-142" target="SxXDG0kKTUsUEHDS-JWn-147" edge="1">
          <mxGeometry relative="1" as="geometry">
            <Array as="points">
              <mxPoint x="670" y="240" />
              <mxPoint x="670" y="190" />
            </Array>
          </mxGeometry>
        </mxCell>
        <mxCell id="SxXDG0kKTUsUEHDS-JWn-172" style="edgeStyle=orthogonalEdgeStyle;rounded=0;orthogonalLoop=1;jettySize=auto;html=1;entryX=0;entryY=0.5;entryDx=0;entryDy=0;" parent="SxXDG0kKTUsUEHDS-JWn-35" source="SxXDG0kKTUsUEHDS-JWn-142" target="SxXDG0kKTUsUEHDS-JWn-143" edge="1">
          <mxGeometry relative="1" as="geometry" />
        </mxCell>
        <mxCell id="SxXDG0kKTUsUEHDS-JWn-142" value="seek_use" style="rounded=1;whiteSpace=wrap;html=1;fillColor=#f5f5f5;strokeColor=#666666;fontColor=#333333;" parent="SxXDG0kKTUsUEHDS-JWn-35" vertex="1">
          <mxGeometry x="520" y="220" width="80" height="40" as="geometry" />
        </mxCell>
        <mxCell id="SxXDG0kKTUsUEHDS-JWn-143" value="get_use_blocks" style="rounded=1;whiteSpace=wrap;html=1;fillColor=#f5f5f5;strokeColor=#666666;fontColor=#333333;" parent="SxXDG0kKTUsUEHDS-JWn-35" vertex="1">
          <mxGeometry x="700" y="220" width="90" height="40" as="geometry" />
        </mxCell>
        <mxCell id="SxXDG0kKTUsUEHDS-JWn-173" style="edgeStyle=orthogonalEdgeStyle;rounded=0;orthogonalLoop=1;jettySize=auto;html=1;entryX=0;entryY=0.5;entryDx=0;entryDy=0;" parent="SxXDG0kKTUsUEHDS-JWn-35" source="SxXDG0kKTUsUEHDS-JWn-144" target="SxXDG0kKTUsUEHDS-JWn-147" edge="1">
          <mxGeometry relative="1" as="geometry" />
        </mxCell>
        <mxCell id="SxXDG0kKTUsUEHDS-JWn-144" value="create_base_blocks" style="rounded=1;whiteSpace=wrap;html=1;fillColor=#f5f5f5;strokeColor=#666666;fontColor=#333333;" parent="SxXDG0kKTUsUEHDS-JWn-35" vertex="1">
          <mxGeometry x="520" y="160" width="120" height="40" as="geometry" />
        </mxCell>
        <mxCell id="SxXDG0kKTUsUEHDS-JWn-174" style="edgeStyle=orthogonalEdgeStyle;rounded=0;orthogonalLoop=1;jettySize=auto;html=1;entryX=0;entryY=0.5;entryDx=0;entryDy=0;" parent="SxXDG0kKTUsUEHDS-JWn-35" source="SxXDG0kKTUsUEHDS-JWn-145" target="SxXDG0kKTUsUEHDS-JWn-146" edge="1">
          <mxGeometry relative="1" as="geometry" />
        </mxCell>
        <mxCell id="SxXDG0kKTUsUEHDS-JWn-145" value="record_best" style="rounded=1;whiteSpace=wrap;html=1;fillColor=#f5f5f5;strokeColor=#666666;fontColor=#333333;" parent="SxXDG0kKTUsUEHDS-JWn-35" vertex="1">
          <mxGeometry x="520" y="280" width="80" height="40" as="geometry" />
        </mxCell>
        <mxCell id="SxXDG0kKTUsUEHDS-JWn-175" style="edgeStyle=orthogonalEdgeStyle;rounded=0;orthogonalLoop=1;jettySize=auto;html=1;entryX=1;entryY=0.75;entryDx=0;entryDy=0;" parent="SxXDG0kKTUsUEHDS-JWn-35" source="SxXDG0kKTUsUEHDS-JWn-146" target="SxXDG0kKTUsUEHDS-JWn-147" edge="1">
          <mxGeometry relative="1" as="geometry">
            <Array as="points">
              <mxPoint x="810" y="300" />
              <mxPoint x="810" y="190" />
            </Array>
          </mxGeometry>
        </mxCell>
        <mxCell id="SxXDG0kKTUsUEHDS-JWn-146" value="trim_and_tail" style="rounded=1;whiteSpace=wrap;html=1;fillColor=#f5f5f5;strokeColor=#666666;fontColor=#333333;" parent="SxXDG0kKTUsUEHDS-JWn-35" vertex="1">
          <mxGeometry x="700" y="280" width="80" height="40" as="geometry" />
        </mxCell>
        <mxCell id="SxXDG0kKTUsUEHDS-JWn-176" style="edgeStyle=orthogonalEdgeStyle;rounded=0;orthogonalLoop=1;jettySize=auto;html=1;entryX=0;entryY=0.5;entryDx=0;entryDy=0;" parent="SxXDG0kKTUsUEHDS-JWn-35" source="SxXDG0kKTUsUEHDS-JWn-147" target="SxXDG0kKTUsUEHDS-JWn-148" edge="1">
          <mxGeometry relative="1" as="geometry" />
        </mxCell>
        <mxCell id="SxXDG0kKTUsUEHDS-JWn-147" value="update_for_pv" style="rounded=1;whiteSpace=wrap;html=1;fillColor=#f5f5f5;strokeColor=#666666;fontColor=#333333;" parent="SxXDG0kKTUsUEHDS-JWn-35" vertex="1">
          <mxGeometry x="700" y="160" width="90" height="40" as="geometry" />
        </mxCell>
        <mxCell id="SxXDG0kKTUsUEHDS-JWn-148" value="correct_overflow" style="rounded=1;whiteSpace=wrap;html=1;fillColor=#f5f5f5;strokeColor=#666666;fontColor=#333333;" parent="SxXDG0kKTUsUEHDS-JWn-35" vertex="1">
          <mxGeometry x="880" y="160" width="100" height="40" as="geometry" />
        </mxCell>
        <mxCell id="SxXDG0kKTUsUEHDS-JWn-163" style="edgeStyle=orthogonalEdgeStyle;rounded=0;orthogonalLoop=1;jettySize=auto;html=1;entryX=0;entryY=0.5;entryDx=0;entryDy=0;" parent="SxXDG0kKTUsUEHDS-JWn-35" source="SxXDG0kKTUsUEHDS-JWn-138" target="SxXDG0kKTUsUEHDS-JWn-142" edge="1">
          <mxGeometry relative="1" as="geometry">
            <Array as="points">
              <mxPoint x="490" y="60" />
              <mxPoint x="490" y="240" />
            </Array>
          </mxGeometry>
        </mxCell>
        <mxCell id="SxXDG0kKTUsUEHDS-JWn-165" style="edgeStyle=orthogonalEdgeStyle;rounded=0;orthogonalLoop=1;jettySize=auto;html=1;entryX=0;entryY=0.5;entryDx=0;entryDy=0;" parent="SxXDG0kKTUsUEHDS-JWn-35" source="SxXDG0kKTUsUEHDS-JWn-138" target="SxXDG0kKTUsUEHDS-JWn-144" edge="1">
          <mxGeometry relative="1" as="geometry">
            <Array as="points">
              <mxPoint x="490" y="60" />
              <mxPoint x="490" y="180" />
            </Array>
          </mxGeometry>
        </mxCell>
        <mxCell id="SxXDG0kKTUsUEHDS-JWn-162" style="edgeStyle=orthogonalEdgeStyle;rounded=0;orthogonalLoop=1;jettySize=auto;html=1;entryX=0;entryY=0.5;entryDx=0;entryDy=0;" parent="SxXDG0kKTUsUEHDS-JWn-35" source="SxXDG0kKTUsUEHDS-JWn-138" target="SxXDG0kKTUsUEHDS-JWn-145" edge="1">
          <mxGeometry relative="1" as="geometry">
            <Array as="points">
              <mxPoint x="490" y="60" />
              <mxPoint x="490" y="300" />
            </Array>
          </mxGeometry>
        </mxCell>
        <mxCell id="SxXDG0kKTUsUEHDS-JWn-140" value="charge_cost_charge_end" style="rounded=1;whiteSpace=wrap;html=1;fillColor=#f5f5f5;strokeColor=#666666;fontColor=#333333;" parent="SxXDG0kKTUsUEHDS-JWn-35" vertex="1">
          <mxGeometry x="700" y="40" width="140" height="40" as="geometry" />
        </mxCell>
        <mxCell id="SxXDG0kKTUsUEHDS-JWn-179" style="edgeStyle=orthogonalEdgeStyle;rounded=0;orthogonalLoop=1;jettySize=auto;html=1;entryX=1;entryY=0.5;entryDx=0;entryDy=0;" parent="SxXDG0kKTUsUEHDS-JWn-35" source="SxXDG0kKTUsUEHDS-JWn-150" target="SxXDG0kKTUsUEHDS-JWn-140" edge="1">
          <mxGeometry relative="1" as="geometry">
            <Array as="points">
              <mxPoint x="80" y="360" />
              <mxPoint x="1000" y="360" />
              <mxPoint x="1000" y="60" />
            </Array>
          </mxGeometry>
        </mxCell>
        <mxCell id="SxXDG0kKTUsUEHDS-JWn-139" value="seek_charge" style="rounded=1;whiteSpace=wrap;html=1;fillColor=#f5f5f5;strokeColor=#666666;fontColor=#333333;" parent="SxXDG0kKTUsUEHDS-JWn-35" vertex="1">
          <mxGeometry x="520" y="40" width="80" height="40" as="geometry" />
        </mxCell>
        <mxCell id="SxXDG0kKTUsUEHDS-JWn-168" style="edgeStyle=orthogonalEdgeStyle;rounded=0;orthogonalLoop=1;jettySize=auto;html=1;entryX=0;entryY=0.5;entryDx=0;entryDy=0;exitX=1;exitY=0.5;exitDx=0;exitDy=0;" parent="SxXDG0kKTUsUEHDS-JWn-35" source="SxXDG0kKTUsUEHDS-JWn-139" target="SxXDG0kKTUsUEHDS-JWn-140" edge="1">
          <mxGeometry relative="1" as="geometry">
            <Array as="points">
              <mxPoint x="640" y="60" />
              <mxPoint x="640" y="60" />
            </Array>
          </mxGeometry>
        </mxCell>
        <mxCell id="SxXDG0kKTUsUEHDS-JWn-169" style="edgeStyle=orthogonalEdgeStyle;rounded=0;orthogonalLoop=1;jettySize=auto;html=1;entryX=0;entryY=0.5;entryDx=0;entryDy=0;exitX=1;exitY=0.5;exitDx=0;exitDy=0;" parent="SxXDG0kKTUsUEHDS-JWn-35" source="SxXDG0kKTUsUEHDS-JWn-139" target="SxXDG0kKTUsUEHDS-JWn-141" edge="1">
          <mxGeometry relative="1" as="geometry">
            <Array as="points">
              <mxPoint x="670" y="60" />
              <mxPoint x="670" y="120" />
            </Array>
          </mxGeometry>
        </mxCell>
        <mxCell id="SxXDG0kKTUsUEHDS-JWn-170" style="edgeStyle=orthogonalEdgeStyle;rounded=0;orthogonalLoop=1;jettySize=auto;html=1;entryX=0;entryY=0.25;entryDx=0;entryDy=0;" parent="SxXDG0kKTUsUEHDS-JWn-35" source="SxXDG0kKTUsUEHDS-JWn-139" target="SxXDG0kKTUsUEHDS-JWn-147" edge="1">
          <mxGeometry relative="1" as="geometry">
            <Array as="points">
              <mxPoint x="670" y="60" />
              <mxPoint x="670" y="170" />
            </Array>
          </mxGeometry>
        </mxCell>
        <mxCell id="SxXDG0kKTUsUEHDS-JWn-164" style="edgeStyle=orthogonalEdgeStyle;rounded=0;orthogonalLoop=1;jettySize=auto;html=1;entryX=0;entryY=0.5;entryDx=0;entryDy=0;" parent="SxXDG0kKTUsUEHDS-JWn-35" source="SxXDG0kKTUsUEHDS-JWn-138" target="SxXDG0kKTUsUEHDS-JWn-139" edge="1">
          <mxGeometry relative="1" as="geometry">
            <Array as="points">
              <mxPoint x="520" y="60" />
            </Array>
          </mxGeometry>
        </mxCell>
        <mxCell id="SxXDG0kKTUsUEHDS-JWn-131" value="Block" style="swimlane;whiteSpace=wrap;html=1;fillColor=#dae8fc;strokeColor=#6c8ebf;" parent="SxXDG0kKTUsUEHDS-JWn-34" vertex="1">
          <mxGeometry x="40" y="60" width="360" height="100" as="geometry" />
        </mxCell>
        <mxCell id="SxXDG0kKTUsUEHDS-JWn-132" value="get_age" style="rounded=1;whiteSpace=wrap;html=1;fillColor=#fff2cc;strokeColor=#d6b656;" parent="SxXDG0kKTUsUEHDS-JWn-131" vertex="1">
          <mxGeometry x="40" y="40" width="80" height="40" as="geometry" />
        </mxCell>
        <mxCell id="SxXDG0kKTUsUEHDS-JWn-133" value="is_active" style="rounded=1;whiteSpace=wrap;html=1;fillColor=#fff2cc;strokeColor=#d6b656;" parent="SxXDG0kKTUsUEHDS-JWn-131" vertex="1">
          <mxGeometry x="140" y="40" width="80" height="40" as="geometry" />
        </mxCell>
        <mxCell id="SxXDG0kKTUsUEHDS-JWn-134" value="is_charge" style="rounded=1;whiteSpace=wrap;html=1;fillColor=#fff2cc;strokeColor=#d6b656;" parent="SxXDG0kKTUsUEHDS-JWn-131" vertex="1">
          <mxGeometry x="240" y="40" width="80" height="40" as="geometry" />
        </mxCell>
        <mxCell id="SxXDG0kKTUsUEHDS-JWn-151" value="adjust_for_offset" style="rounded=1;whiteSpace=wrap;html=1;fillColor=#f5f5f5;strokeColor=#666666;fontColor=#333333;" parent="SxXDG0kKTUsUEHDS-JWn-34" vertex="1">
          <mxGeometry x="340" y="220" width="100" height="40" as="geometry" />
        </mxCell>
        <mxCell id="SxXDG0kKTUsUEHDS-JWn-157" style="edgeStyle=orthogonalEdgeStyle;rounded=0;orthogonalLoop=1;jettySize=auto;html=1;entryX=0;entryY=0.5;entryDx=0;entryDy=0;exitX=0.75;exitY=0;exitDx=0;exitDy=0;" parent="SxXDG0kKTUsUEHDS-JWn-34" source="SxXDG0kKTUsUEHDS-JWn-135" target="SxXDG0kKTUsUEHDS-JWn-151" edge="1">
          <mxGeometry relative="1" as="geometry">
            <Array as="points">
              <mxPoint x="293" y="240" />
            </Array>
          </mxGeometry>
        </mxCell>
        <mxCell id="SxXDG0kKTUsUEHDS-JWn-166" style="edgeStyle=orthogonalEdgeStyle;rounded=0;orthogonalLoop=1;jettySize=auto;html=1;entryX=0;entryY=0.5;entryDx=0;entryDy=0;" parent="SxXDG0kKTUsUEHDS-JWn-34" source="SxXDG0kKTUsUEHDS-JWn-138" target="SxXDG0kKTUsUEHDS-JWn-152" edge="1">
          <mxGeometry relative="1" as="geometry">
            <Array as="points">
              <mxPoint x="530" y="340" />
              <mxPoint x="530" y="240" />
            </Array>
          </mxGeometry>
        </mxCell>
        <mxCell id="SxXDG0kKTUsUEHDS-JWn-167" style="edgeStyle=orthogonalEdgeStyle;rounded=0;orthogonalLoop=1;jettySize=auto;html=1;entryX=0;entryY=0.5;entryDx=0;entryDy=0;" parent="SxXDG0kKTUsUEHDS-JWn-34" source="SxXDG0kKTUsUEHDS-JWn-138" target="SxXDG0kKTUsUEHDS-JWn-153" edge="1">
          <mxGeometry relative="1" as="geometry">
            <Array as="points">
              <mxPoint x="530" y="340" />
              <mxPoint x="530" y="180" />
            </Array>
          </mxGeometry>
        </mxCell>
        <mxCell id="SxXDG0kKTUsUEHDS-JWn-154" value="update_schedule" style="rounded=1;whiteSpace=wrap;html=1;fillColor=#fff2cc;strokeColor=#d6b656;" parent="SxXDG0kKTUsUEHDS-JWn-34" vertex="1">
          <mxGeometry x="80" y="220" width="110" height="40" as="geometry" />
        </mxCell>
        <mxCell id="SxXDG0kKTUsUEHDS-JWn-158" style="edgeStyle=orthogonalEdgeStyle;rounded=0;orthogonalLoop=1;jettySize=auto;html=1;entryX=0.5;entryY=0;entryDx=0;entryDy=0;" parent="SxXDG0kKTUsUEHDS-JWn-34" source="SxXDG0kKTUsUEHDS-JWn-154" target="SxXDG0kKTUsUEHDS-JWn-135" edge="1">
          <mxGeometry relative="1" as="geometry" />
        </mxCell>
        <mxCell id="SxXDG0kKTUsUEHDS-JWn-152" value="get_best" style="rounded=1;whiteSpace=wrap;html=1;fillColor=#f5f5f5;strokeColor=#666666;fontColor=#333333;" parent="SxXDG0kKTUsUEHDS-JWn-34" vertex="1">
          <mxGeometry x="560" y="220" width="60" height="40" as="geometry" />
        </mxCell>
        <mxCell id="SxXDG0kKTUsUEHDS-JWn-153" value="combine_blocks" style="rounded=1;whiteSpace=wrap;html=1;fillColor=#f5f5f5;strokeColor=#666666;fontColor=#333333;" parent="SxXDG0kKTUsUEHDS-JWn-34" vertex="1">
          <mxGeometry x="560" y="160" width="100" height="40" as="geometry" />
        </mxCell>
        <mxCell id="SxXDG0kKTUsUEHDS-JWn-37" style="edgeStyle=orthogonalEdgeStyle;rounded=0;orthogonalLoop=1;jettySize=auto;html=1;entryX=0;entryY=0.5;entryDx=0;entryDy=0;" parent="1" source="SxXDG0kKTUsUEHDS-JWn-1" target="SxXDG0kKTUsUEHDS-JWn-36" edge="1">
          <mxGeometry relative="1" as="geometry">
            <Array as="points">
              <mxPoint x="1180" y="340" />
              <mxPoint x="1180" y="1980" />
            </Array>
          </mxGeometry>
        </mxCell>
        <mxCell id="SxXDG0kKTUsUEHDS-JWn-38" value="worker" style="swimlane;whiteSpace=wrap;html=1;fillColor=#d5e8d4;strokeColor=#82b366;" parent="1" vertex="1">
          <mxGeometry x="250" y="280" width="320" height="960" as="geometry" />
        </mxCell>
        <mxCell id="SxXDG0kKTUsUEHDS-JWn-123" style="edgeStyle=orthogonalEdgeStyle;rounded=0;orthogonalLoop=1;jettySize=auto;html=1;entryX=0;entryY=0.5;entryDx=0;entryDy=0;exitX=0;exitY=0.75;exitDx=0;exitDy=0;" parent="SxXDG0kKTUsUEHDS-JWn-38" source="SxXDG0kKTUsUEHDS-JWn-45" target="SxXDG0kKTUsUEHDS-JWn-114" edge="1">
          <mxGeometry relative="1" as="geometry">
            <Array as="points">
              <mxPoint x="50" y="70" />
              <mxPoint x="50" y="450" />
            </Array>
          </mxGeometry>
        </mxCell>
        <mxCell id="SxXDG0kKTUsUEHDS-JWn-125" style="edgeStyle=orthogonalEdgeStyle;rounded=0;orthogonalLoop=1;jettySize=auto;html=1;entryX=0;entryY=0.5;entryDx=0;entryDy=0;exitX=0;exitY=0.75;exitDx=0;exitDy=0;" parent="SxXDG0kKTUsUEHDS-JWn-38" source="SxXDG0kKTUsUEHDS-JWn-45" target="SxXDG0kKTUsUEHDS-JWn-116" edge="1">
          <mxGeometry relative="1" as="geometry">
            <Array as="points">
              <mxPoint x="50" y="70" />
              <mxPoint x="50" y="570" />
            </Array>
          </mxGeometry>
        </mxCell>
        <mxCell id="SxXDG0kKTUsUEHDS-JWn-211" style="edgeStyle=orthogonalEdgeStyle;rounded=0;orthogonalLoop=1;jettySize=auto;html=1;exitX=0;exitY=0.75;exitDx=0;exitDy=0;entryX=0;entryY=0.5;entryDx=0;entryDy=0;" parent="SxXDG0kKTUsUEHDS-JWn-38" source="SxXDG0kKTUsUEHDS-JWn-45" target="SxXDG0kKTUsUEHDS-JWn-113" edge="1">
          <mxGeometry relative="1" as="geometry">
            <Array as="points">
              <mxPoint x="50" y="70" />
              <mxPoint x="50" y="870" />
            </Array>
          </mxGeometry>
        </mxCell>
        <mxCell id="SxXDG0kKTUsUEHDS-JWn-212" style="edgeStyle=orthogonalEdgeStyle;rounded=0;orthogonalLoop=1;jettySize=auto;html=1;entryX=0;entryY=0.5;entryDx=0;entryDy=0;" parent="SxXDG0kKTUsUEHDS-JWn-38" source="SxXDG0kKTUsUEHDS-JWn-45" target="SxXDG0kKTUsUEHDS-JWn-115" edge="1">
          <mxGeometry relative="1" as="geometry">
            <Array as="points">
              <mxPoint x="50" y="70" />
              <mxPoint x="50" y="510" />
            </Array>
          </mxGeometry>
        </mxCell>
        <mxCell id="SxXDG0kKTUsUEHDS-JWn-213" style="edgeStyle=orthogonalEdgeStyle;rounded=0;orthogonalLoop=1;jettySize=auto;html=1;entryX=0;entryY=0.5;entryDx=0;entryDy=0;" parent="SxXDG0kKTUsUEHDS-JWn-38" source="SxXDG0kKTUsUEHDS-JWn-45" target="SxXDG0kKTUsUEHDS-JWn-117" edge="1">
          <mxGeometry relative="1" as="geometry">
            <Array as="points">
              <mxPoint x="50" y="70" />
              <mxPoint x="50" y="630" />
            </Array>
          </mxGeometry>
        </mxCell>
        <mxCell id="SxXDG0kKTUsUEHDS-JWn-214" style="edgeStyle=orthogonalEdgeStyle;rounded=0;orthogonalLoop=1;jettySize=auto;html=1;entryX=0;entryY=0.5;entryDx=0;entryDy=0;" parent="SxXDG0kKTUsUEHDS-JWn-38" source="SxXDG0kKTUsUEHDS-JWn-45" target="SxXDG0kKTUsUEHDS-JWn-118" edge="1">
          <mxGeometry relative="1" as="geometry">
            <Array as="points">
              <mxPoint x="50" y="70" />
              <mxPoint x="50" y="690" />
            </Array>
          </mxGeometry>
        </mxCell>
        <mxCell id="SxXDG0kKTUsUEHDS-JWn-215" style="edgeStyle=orthogonalEdgeStyle;rounded=0;orthogonalLoop=1;jettySize=auto;html=1;entryX=0;entryY=0.5;entryDx=0;entryDy=0;" parent="SxXDG0kKTUsUEHDS-JWn-38" source="SxXDG0kKTUsUEHDS-JWn-45" target="SxXDG0kKTUsUEHDS-JWn-120" edge="1">
          <mxGeometry relative="1" as="geometry">
            <Array as="points">
              <mxPoint x="50" y="70" />
              <mxPoint x="50" y="300" />
            </Array>
          </mxGeometry>
        </mxCell>
        <mxCell id="SxXDG0kKTUsUEHDS-JWn-225" style="edgeStyle=orthogonalEdgeStyle;rounded=0;orthogonalLoop=1;jettySize=auto;html=1;entryX=0;entryY=0.5;entryDx=0;entryDy=0;" parent="SxXDG0kKTUsUEHDS-JWn-38" source="SxXDG0kKTUsUEHDS-JWn-45" target="SxXDG0kKTUsUEHDS-JWn-121" edge="1">
          <mxGeometry relative="1" as="geometry">
            <Array as="points">
              <mxPoint x="50" y="70" />
              <mxPoint x="50" y="370" />
            </Array>
          </mxGeometry>
        </mxCell>
        <mxCell id="SxXDG0kKTUsUEHDS-JWn-245" style="edgeStyle=orthogonalEdgeStyle;rounded=0;orthogonalLoop=1;jettySize=auto;html=1;entryX=0;entryY=0.5;entryDx=0;entryDy=0;exitX=0;exitY=0.75;exitDx=0;exitDy=0;" parent="SxXDG0kKTUsUEHDS-JWn-38" source="SxXDG0kKTUsUEHDS-JWn-45" target="SxXDG0kKTUsUEHDS-JWn-119" edge="1">
          <mxGeometry relative="1" as="geometry">
            <Array as="points">
              <mxPoint x="50" y="70" />
              <mxPoint x="50" y="810" />
            </Array>
          </mxGeometry>
        </mxCell>
        <mxCell id="SxXDG0kKTUsUEHDS-JWn-45" value="run" style="rounded=1;whiteSpace=wrap;html=1;fillColor=#fff2cc;strokeColor=#d6b656;" parent="SxXDG0kKTUsUEHDS-JWn-38" vertex="1">
          <mxGeometry x="120" y="40" width="80" height="40" as="geometry" />
        </mxCell>
        <mxCell id="SxXDG0kKTUsUEHDS-JWn-113" value="is_update_time" style="rounded=1;whiteSpace=wrap;html=1;fillColor=#f5f5f5;strokeColor=#666666;fontColor=#333333;" parent="SxXDG0kKTUsUEHDS-JWn-38" vertex="1">
          <mxGeometry x="100" y="850" width="100" height="40" as="geometry" />
        </mxCell>
        <mxCell id="SxXDG0kKTUsUEHDS-JWn-220" style="edgeStyle=orthogonalEdgeStyle;rounded=0;orthogonalLoop=1;jettySize=auto;html=1;entryX=0.5;entryY=1;entryDx=0;entryDy=0;exitX=1;exitY=0.25;exitDx=0;exitDy=0;" parent="SxXDG0kKTUsUEHDS-JWn-38" source="SxXDG0kKTUsUEHDS-JWn-114" target="SxXDG0kKTUsUEHDS-JWn-121" edge="1">
          <mxGeometry relative="1" as="geometry" />
        </mxCell>
        <mxCell id="SxXDG0kKTUsUEHDS-JWn-114" value="check_inverter_local_time" style="rounded=1;whiteSpace=wrap;html=1;fillColor=#f5f5f5;strokeColor=#666666;fontColor=#333333;" parent="SxXDG0kKTUsUEHDS-JWn-38" vertex="1">
          <mxGeometry x="70" y="430" width="160" height="40" as="geometry" />
        </mxCell>
        <mxCell id="SxXDG0kKTUsUEHDS-JWn-216" style="edgeStyle=orthogonalEdgeStyle;rounded=0;orthogonalLoop=1;jettySize=auto;html=1;entryX=0;entryY=0.5;entryDx=0;entryDy=0;exitX=0;exitY=0.75;exitDx=0;exitDy=0;" parent="SxXDG0kKTUsUEHDS-JWn-38" source="SxXDG0kKTUsUEHDS-JWn-115" target="SxXDG0kKTUsUEHDS-JWn-122" edge="1">
          <mxGeometry relative="1" as="geometry">
            <Array as="points">
              <mxPoint x="70" y="520" />
              <mxPoint x="70" y="750" />
            </Array>
          </mxGeometry>
        </mxCell>
        <mxCell id="SxXDG0kKTUsUEHDS-JWn-221" style="edgeStyle=orthogonalEdgeStyle;rounded=0;orthogonalLoop=1;jettySize=auto;html=1;entryX=0.5;entryY=1;entryDx=0;entryDy=0;exitX=1;exitY=0.25;exitDx=0;exitDy=0;" parent="SxXDG0kKTUsUEHDS-JWn-38" source="SxXDG0kKTUsUEHDS-JWn-115" target="SxXDG0kKTUsUEHDS-JWn-121" edge="1">
          <mxGeometry relative="1" as="geometry" />
        </mxCell>
        <mxCell id="SxXDG0kKTUsUEHDS-JWn-115" value="set_charge" style="rounded=1;whiteSpace=wrap;html=1;fillColor=#f5f5f5;strokeColor=#666666;fontColor=#333333;" parent="SxXDG0kKTUsUEHDS-JWn-38" vertex="1">
          <mxGeometry x="100" y="490" width="100" height="40" as="geometry" />
        </mxCell>
        <mxCell id="SxXDG0kKTUsUEHDS-JWn-217" style="edgeStyle=orthogonalEdgeStyle;rounded=0;orthogonalLoop=1;jettySize=auto;html=1;entryX=0;entryY=0.5;entryDx=0;entryDy=0;exitX=0;exitY=0.75;exitDx=0;exitDy=0;" parent="SxXDG0kKTUsUEHDS-JWn-38" source="SxXDG0kKTUsUEHDS-JWn-116" target="SxXDG0kKTUsUEHDS-JWn-122" edge="1">
          <mxGeometry relative="1" as="geometry">
            <mxPoint x="200" y="750" as="targetPoint" />
            <Array as="points">
              <mxPoint x="70" y="580" />
              <mxPoint x="70" y="750" />
            </Array>
          </mxGeometry>
        </mxCell>
        <mxCell id="SxXDG0kKTUsUEHDS-JWn-222" style="edgeStyle=orthogonalEdgeStyle;rounded=0;orthogonalLoop=1;jettySize=auto;html=1;exitX=1;exitY=0.25;exitDx=0;exitDy=0;" parent="SxXDG0kKTUsUEHDS-JWn-38" source="SxXDG0kKTUsUEHDS-JWn-116" edge="1">
          <mxGeometry relative="1" as="geometry">
            <mxPoint x="260" y="390" as="targetPoint" />
            <Array as="points">
              <mxPoint x="261" y="560" />
            </Array>
          </mxGeometry>
        </mxCell>
        <mxCell id="SxXDG0kKTUsUEHDS-JWn-116" value="set_full_if_done" style="rounded=1;whiteSpace=wrap;html=1;fillColor=#f5f5f5;strokeColor=#666666;fontColor=#333333;" parent="SxXDG0kKTUsUEHDS-JWn-38" vertex="1">
          <mxGeometry x="100" y="550" width="100" height="40" as="geometry" />
        </mxCell>
        <mxCell id="SxXDG0kKTUsUEHDS-JWn-218" style="edgeStyle=orthogonalEdgeStyle;rounded=0;orthogonalLoop=1;jettySize=auto;html=1;entryX=0;entryY=0.5;entryDx=0;entryDy=0;exitX=0;exitY=0.75;exitDx=0;exitDy=0;" parent="SxXDG0kKTUsUEHDS-JWn-38" source="SxXDG0kKTUsUEHDS-JWn-117" target="SxXDG0kKTUsUEHDS-JWn-122" edge="1">
          <mxGeometry relative="1" as="geometry">
            <Array as="points">
              <mxPoint x="70" y="640" />
              <mxPoint x="70" y="750" />
            </Array>
          </mxGeometry>
        </mxCell>
        <mxCell id="SxXDG0kKTUsUEHDS-JWn-223" style="edgeStyle=orthogonalEdgeStyle;rounded=0;orthogonalLoop=1;jettySize=auto;html=1;entryX=0.5;entryY=1;entryDx=0;entryDy=0;exitX=1;exitY=0.25;exitDx=0;exitDy=0;" parent="SxXDG0kKTUsUEHDS-JWn-38" source="SxXDG0kKTUsUEHDS-JWn-117" target="SxXDG0kKTUsUEHDS-JWn-121" edge="1">
          <mxGeometry relative="1" as="geometry">
            <Array as="points">
              <mxPoint x="260" y="620" />
            </Array>
          </mxGeometry>
        </mxCell>
        <mxCell id="SxXDG0kKTUsUEHDS-JWn-117" value="set_hold" style="rounded=1;whiteSpace=wrap;html=1;fillColor=#f5f5f5;strokeColor=#666666;fontColor=#333333;" parent="SxXDG0kKTUsUEHDS-JWn-38" vertex="1">
          <mxGeometry x="100" y="610" width="100" height="40" as="geometry" />
        </mxCell>
        <mxCell id="SxXDG0kKTUsUEHDS-JWn-219" style="edgeStyle=orthogonalEdgeStyle;rounded=0;orthogonalLoop=1;jettySize=auto;html=1;entryX=0;entryY=0.5;entryDx=0;entryDy=0;exitX=0;exitY=0.75;exitDx=0;exitDy=0;" parent="SxXDG0kKTUsUEHDS-JWn-38" source="SxXDG0kKTUsUEHDS-JWn-118" target="SxXDG0kKTUsUEHDS-JWn-122" edge="1">
          <mxGeometry relative="1" as="geometry">
            <Array as="points">
              <mxPoint x="70" y="700" />
              <mxPoint x="70" y="750" />
            </Array>
          </mxGeometry>
        </mxCell>
        <mxCell id="SxXDG0kKTUsUEHDS-JWn-224" style="edgeStyle=orthogonalEdgeStyle;rounded=0;orthogonalLoop=1;jettySize=auto;html=1;exitX=1;exitY=0.25;exitDx=0;exitDy=0;" parent="SxXDG0kKTUsUEHDS-JWn-38" source="SxXDG0kKTUsUEHDS-JWn-118" edge="1">
          <mxGeometry relative="1" as="geometry">
            <mxPoint x="260" y="390" as="targetPoint" />
          </mxGeometry>
        </mxCell>
        <mxCell id="SxXDG0kKTUsUEHDS-JWn-118" value="set_use" style="rounded=1;whiteSpace=wrap;html=1;fillColor=#f5f5f5;strokeColor=#666666;fontColor=#333333;" parent="SxXDG0kKTUsUEHDS-JWn-38" vertex="1">
          <mxGeometry x="100" y="670" width="100" height="40" as="geometry" />
        </mxCell>
        <mxCell id="SxXDG0kKTUsUEHDS-JWn-119" value="get_soc" style="rounded=1;whiteSpace=wrap;html=1;fillColor=#f5f5f5;strokeColor=#666666;fontColor=#333333;" parent="SxXDG0kKTUsUEHDS-JWn-38" vertex="1">
          <mxGeometry x="100" y="790" width="100" height="40" as="geometry" />
        </mxCell>
        <mxCell id="SxXDG0kKTUsUEHDS-JWn-120" value="print_schedule" style="rounded=1;whiteSpace=wrap;html=1;fillColor=#f5f5f5;strokeColor=#666666;fontColor=#333333;" parent="SxXDG0kKTUsUEHDS-JWn-38" vertex="1">
          <mxGeometry x="110" y="280" width="100" height="40" as="geometry" />
        </mxCell>
        <mxCell id="SxXDG0kKTUsUEHDS-JWn-121" value="print_msg" style="rounded=1;whiteSpace=wrap;html=1;fillColor=#f5f5f5;strokeColor=#666666;fontColor=#333333;" parent="SxXDG0kKTUsUEHDS-JWn-38" vertex="1">
          <mxGeometry x="210" y="350" width="100" height="40" as="geometry" />
        </mxCell>
        <mxCell id="SxXDG0kKTUsUEHDS-JWn-122" value="is_manual_debug" style="rounded=1;whiteSpace=wrap;html=1;fillColor=#f5f5f5;strokeColor=#666666;fontColor=#333333;" parent="SxXDG0kKTUsUEHDS-JWn-38" vertex="1">
          <mxGeometry x="100" y="730" width="100" height="40" as="geometry" />
        </mxCell>
        <mxCell id="SxXDG0kKTUsUEHDS-JWn-39" value="backup" style="swimlane;whiteSpace=wrap;html=1;fillColor=#d5e8d4;strokeColor=#82b366;" parent="1" vertex="1">
          <mxGeometry x="680" y="520" width="200" height="460" as="geometry" />
        </mxCell>
        <mxCell id="SxXDG0kKTUsUEHDS-JWn-40" value="load_last_charge" style="rounded=1;whiteSpace=wrap;html=1;fillColor=#fff2cc;strokeColor=#d6b656;" parent="SxXDG0kKTUsUEHDS-JWn-39" vertex="1">
          <mxGeometry x="40" y="40" width="120" height="40" as="geometry" />
        </mxCell>
        <mxCell id="SxXDG0kKTUsUEHDS-JWn-41" value="load_active_block" style="rounded=1;whiteSpace=wrap;html=1;fillColor=#fff2cc;strokeColor=#d6b656;" parent="SxXDG0kKTUsUEHDS-JWn-39" vertex="1">
          <mxGeometry x="40" y="100" width="120" height="40" as="geometry" />
        </mxCell>
        <mxCell id="SxXDG0kKTUsUEHDS-JWn-48" value="save_active_block" style="rounded=1;whiteSpace=wrap;html=1;fillColor=#fff2cc;strokeColor=#d6b656;" parent="SxXDG0kKTUsUEHDS-JWn-39" vertex="1">
          <mxGeometry x="40" y="220" width="120" height="40" as="geometry" />
        </mxCell>
        <mxCell id="SxXDG0kKTUsUEHDS-JWn-49" value="save_base_data" style="rounded=1;whiteSpace=wrap;html=1;fillColor=#fff2cc;strokeColor=#d6b656;" parent="SxXDG0kKTUsUEHDS-JWn-39" vertex="1">
          <mxGeometry x="40" y="280" width="120" height="40" as="geometry" />
        </mxCell>
        <mxCell id="SxXDG0kKTUsUEHDS-JWn-50" value="save_yesterday_statistics" style="rounded=1;whiteSpace=wrap;html=1;fillColor=#fff2cc;strokeColor=#d6b656;" parent="SxXDG0kKTUsUEHDS-JWn-39" vertex="1">
          <mxGeometry x="20" y="160" width="160" height="40" as="geometry" />
        </mxCell>
        <mxCell id="SxXDG0kKTUsUEHDS-JWn-47" value="save_last_charge" style="rounded=1;whiteSpace=wrap;html=1;fillColor=#fff2cc;strokeColor=#d6b656;" parent="SxXDG0kKTUsUEHDS-JWn-39" vertex="1">
          <mxGeometry x="40" y="400" width="120" height="40" as="geometry" />
        </mxCell>
        <mxCell id="Y3HNoDgw4dzIJGGibzqn-1" value="save_schedule" style="rounded=1;whiteSpace=wrap;html=1;fillColor=#fff2cc;strokeColor=#d6b656;" parent="SxXDG0kKTUsUEHDS-JWn-39" vertex="1">
          <mxGeometry x="40" y="340" width="120" height="40" as="geometry" />
        </mxCell>
        <mxCell id="SxXDG0kKTUsUEHDS-JWn-42" style="edgeStyle=orthogonalEdgeStyle;rounded=0;orthogonalLoop=1;jettySize=auto;html=1;entryX=0.5;entryY=0;entryDx=0;entryDy=0;exitX=0.5;exitY=1;exitDx=0;exitDy=0;" parent="1" source="rRAEdFL90UoUVAQAbm-Y-2" target="SxXDG0kKTUsUEHDS-JWn-1" edge="1">
          <mxGeometry relative="1" as="geometry">
            <Array as="points">
              <mxPoint x="550" y="240" />
              <mxPoint x="1000" y="240" />
            </Array>
          </mxGeometry>
        </mxCell>
        <mxCell id="SxXDG0kKTUsUEHDS-JWn-43" style="edgeStyle=orthogonalEdgeStyle;rounded=0;orthogonalLoop=1;jettySize=auto;html=1;entryX=1;entryY=0.5;entryDx=0;entryDy=0;" parent="1" source="SxXDG0kKTUsUEHDS-JWn-1" target="SxXDG0kKTUsUEHDS-JWn-40" edge="1">
          <mxGeometry relative="1" as="geometry" />
        </mxCell>
        <mxCell id="SxXDG0kKTUsUEHDS-JWn-44" style="edgeStyle=orthogonalEdgeStyle;rounded=0;orthogonalLoop=1;jettySize=auto;html=1;entryX=1;entryY=0.5;entryDx=0;entryDy=0;" parent="1" source="SxXDG0kKTUsUEHDS-JWn-1" target="SxXDG0kKTUsUEHDS-JWn-41" edge="1">
          <mxGeometry relative="1" as="geometry" />
        </mxCell>
        <mxCell id="SxXDG0kKTUsUEHDS-JWn-46" style="edgeStyle=orthogonalEdgeStyle;rounded=0;orthogonalLoop=1;jettySize=auto;html=1;entryX=0.5;entryY=0;entryDx=0;entryDy=0;exitX=0.5;exitY=1;exitDx=0;exitDy=0;" parent="1" source="rRAEdFL90UoUVAQAbm-Y-2" target="SxXDG0kKTUsUEHDS-JWn-45" edge="1">
          <mxGeometry relative="1" as="geometry">
            <Array as="points">
              <mxPoint x="550" y="240" />
              <mxPoint x="410" y="240" />
            </Array>
          </mxGeometry>
        </mxCell>
        <mxCell id="SxXDG0kKTUsUEHDS-JWn-95" value="manager_sun" style="swimlane;whiteSpace=wrap;html=1;fillColor=#d5e8d4;strokeColor=#82b366;" parent="1" vertex="1">
          <mxGeometry x="2040" y="1210" width="360" height="140" as="geometry" />
        </mxCell>
        <mxCell id="SxXDG0kKTUsUEHDS-JWn-96" value="get_declination" style="rounded=1;whiteSpace=wrap;html=1;fillColor=#f5f5f5;strokeColor=#666666;fontColor=#333333;" parent="SxXDG0kKTUsUEHDS-JWn-95" vertex="1">
          <mxGeometry x="220" y="60" width="100" height="40" as="geometry" />
        </mxCell>
        <mxCell id="Nv1s7g3Ulj0G5_ksur5o-1" style="edgeStyle=orthogonalEdgeStyle;rounded=0;orthogonalLoop=1;jettySize=auto;html=1;entryX=0;entryY=0.5;entryDx=0;entryDy=0;" parent="SxXDG0kKTUsUEHDS-JWn-95" source="SxXDG0kKTUsUEHDS-JWn-97" target="SxXDG0kKTUsUEHDS-JWn-96" edge="1">
          <mxGeometry relative="1" as="geometry" />
        </mxCell>
        <mxCell id="SxXDG0kKTUsUEHDS-JWn-97" value="get elevation_and_azimuth" style="rounded=1;whiteSpace=wrap;html=1;fillColor=#fff2cc;strokeColor=#d6b656;" parent="SxXDG0kKTUsUEHDS-JWn-95" vertex="1">
          <mxGeometry x="40" y="60" width="160" height="40" as="geometry" />
        </mxCell>
        <mxCell id="SxXDG0kKTUsUEHDS-JWn-110" value="manual (done)" style="swimlane;whiteSpace=wrap;html=1;fillColor=#d5e8d4;strokeColor=#82b366;" parent="1" vertex="1">
          <mxGeometry x="40" y="270" width="140" height="120" as="geometry" />
        </mxCell>
        <mxCell id="SxXDG0kKTUsUEHDS-JWn-111" value="check_manual" style="rounded=1;whiteSpace=wrap;html=1;fillColor=#fff2cc;strokeColor=#d6b656;" parent="SxXDG0kKTUsUEHDS-JWn-110" vertex="1">
          <mxGeometry x="20" y="40" width="100" height="40" as="geometry" />
        </mxCell>
        <mxCell id="SxXDG0kKTUsUEHDS-JWn-112" style="edgeStyle=orthogonalEdgeStyle;rounded=0;orthogonalLoop=1;jettySize=auto;html=1;entryX=1;entryY=0.5;entryDx=0;entryDy=0;exitX=0;exitY=0.25;exitDx=0;exitDy=0;" parent="1" source="SxXDG0kKTUsUEHDS-JWn-45" target="SxXDG0kKTUsUEHDS-JWn-111" edge="1">
          <mxGeometry relative="1" as="geometry" />
        </mxCell>
        <mxCell id="SxXDG0kKTUsUEHDS-JWn-124" style="edgeStyle=orthogonalEdgeStyle;rounded=0;orthogonalLoop=1;jettySize=auto;html=1;entryX=0;entryY=0.5;entryDx=0;entryDy=0;" parent="1" source="SxXDG0kKTUsUEHDS-JWn-45" target="SxXDG0kKTUsUEHDS-JWn-50" edge="1">
          <mxGeometry relative="1" as="geometry">
            <Array as="points">
              <mxPoint x="640" y="340" />
              <mxPoint x="640" y="700" />
            </Array>
          </mxGeometry>
        </mxCell>
        <mxCell id="SxXDG0kKTUsUEHDS-JWn-126" style="edgeStyle=orthogonalEdgeStyle;rounded=0;orthogonalLoop=1;jettySize=auto;html=1;entryX=1;entryY=0.5;entryDx=0;entryDy=0;exitX=0;exitY=0.5;exitDx=0;exitDy=0;" parent="1" source="SxXDG0kKTUsUEHDS-JWn-1" target="SxXDG0kKTUsUEHDS-JWn-32" edge="1">
          <mxGeometry relative="1" as="geometry">
            <Array as="points">
              <mxPoint x="900" y="340" />
              <mxPoint x="900" y="380" />
            </Array>
          </mxGeometry>
        </mxCell>
        <mxCell id="SxXDG0kKTUsUEHDS-JWn-128" style="edgeStyle=orthogonalEdgeStyle;rounded=0;orthogonalLoop=1;jettySize=auto;html=1;entryX=0;entryY=0.5;entryDx=0;entryDy=0;exitX=0.5;exitY=1;exitDx=0;exitDy=0;" parent="1" source="rRAEdFL90UoUVAQAbm-Y-3" target="SxXDG0kKTUsUEHDS-JWn-127" edge="1">
          <mxGeometry relative="1" as="geometry">
            <Array as="points">
              <mxPoint x="660" y="440" />
            </Array>
          </mxGeometry>
        </mxCell>
        <mxCell id="SxXDG0kKTUsUEHDS-JWn-129" style="edgeStyle=orthogonalEdgeStyle;rounded=0;orthogonalLoop=1;jettySize=auto;html=1;entryX=0;entryY=0.5;entryDx=0;entryDy=0;" parent="1" source="SxXDG0kKTUsUEHDS-JWn-121" target="SxXDG0kKTUsUEHDS-JWn-127" edge="1">
          <mxGeometry relative="1" as="geometry">
            <Array as="points">
              <mxPoint x="660" y="650" />
              <mxPoint x="660" y="440" />
            </Array>
          </mxGeometry>
        </mxCell>
        <mxCell id="SxXDG0kKTUsUEHDS-JWn-130" style="edgeStyle=orthogonalEdgeStyle;rounded=0;orthogonalLoop=1;jettySize=auto;html=1;entryX=0;entryY=0.5;entryDx=0;entryDy=0;exitX=1;exitY=0.5;exitDx=0;exitDy=0;" parent="1" source="SxXDG0kKTUsUEHDS-JWn-120" target="SxXDG0kKTUsUEHDS-JWn-127" edge="1">
          <mxGeometry relative="1" as="geometry">
            <mxPoint x="560" y="530" as="sourcePoint" />
            <Array as="points">
              <mxPoint x="660" y="580" />
              <mxPoint x="660" y="440" />
            </Array>
          </mxGeometry>
        </mxCell>
        <mxCell id="SxXDG0kKTUsUEHDS-JWn-159" style="edgeStyle=orthogonalEdgeStyle;rounded=0;orthogonalLoop=1;jettySize=auto;html=1;entryX=0;entryY=0.5;entryDx=0;entryDy=0;" parent="1" source="SxXDG0kKTUsUEHDS-JWn-45" target="SxXDG0kKTUsUEHDS-JWn-136" edge="1">
          <mxGeometry relative="1" as="geometry">
            <Array as="points">
              <mxPoint x="640" y="340" />
              <mxPoint x="640" y="2040" />
            </Array>
          </mxGeometry>
        </mxCell>
        <mxCell id="SxXDG0kKTUsUEHDS-JWn-160" style="edgeStyle=orthogonalEdgeStyle;rounded=0;orthogonalLoop=1;jettySize=auto;html=1;entryX=0;entryY=0.5;entryDx=0;entryDy=0;" parent="1" source="SxXDG0kKTUsUEHDS-JWn-45" target="SxXDG0kKTUsUEHDS-JWn-137" edge="1">
          <mxGeometry relative="1" as="geometry">
            <Array as="points">
              <mxPoint x="640" y="340" />
              <mxPoint x="640" y="2100" />
            </Array>
          </mxGeometry>
        </mxCell>
        <mxCell id="SxXDG0kKTUsUEHDS-JWn-185" value="charge" style="swimlane;whiteSpace=wrap;html=1;fillColor=#d5e8d4;strokeColor=#82b366;" parent="1" vertex="1">
          <mxGeometry x="220" y="1340" width="360" height="300" as="geometry" />
        </mxCell>
        <mxCell id="SxXDG0kKTUsUEHDS-JWn-192" style="edgeStyle=orthogonalEdgeStyle;rounded=0;orthogonalLoop=1;jettySize=auto;html=1;entryX=0.5;entryY=0;entryDx=0;entryDy=0;exitX=0.5;exitY=1;exitDx=0;exitDy=0;" parent="SxXDG0kKTUsUEHDS-JWn-185" source="SxXDG0kKTUsUEHDS-JWn-186" target="SxXDG0kKTUsUEHDS-JWn-187" edge="1">
          <mxGeometry relative="1" as="geometry" />
        </mxCell>
        <mxCell id="SxXDG0kKTUsUEHDS-JWn-186" value="update_last_charge" style="rounded=1;whiteSpace=wrap;html=1;fillColor=#fff2cc;strokeColor=#d6b656;" parent="SxXDG0kKTUsUEHDS-JWn-185" vertex="1">
          <mxGeometry x="40" y="60" width="120" height="40" as="geometry" />
        </mxCell>
        <mxCell id="SxXDG0kKTUsUEHDS-JWn-187" value="get_last_charge" style="rounded=1;whiteSpace=wrap;html=1;fillColor=#fff2cc;strokeColor=#d6b656;" parent="SxXDG0kKTUsUEHDS-JWn-185" vertex="1">
          <mxGeometry x="40" y="120" width="120" height="40" as="geometry" />
        </mxCell>
        <mxCell id="SxXDG0kKTUsUEHDS-JWn-197" style="edgeStyle=orthogonalEdgeStyle;rounded=0;orthogonalLoop=1;jettySize=auto;html=1;entryX=0;entryY=0.5;entryDx=0;entryDy=0;" parent="SxXDG0kKTUsUEHDS-JWn-185" source="SxXDG0kKTUsUEHDS-JWn-188" target="SxXDG0kKTUsUEHDS-JWn-190" edge="1">
          <mxGeometry relative="1" as="geometry" />
        </mxCell>
        <mxCell id="SxXDG0kKTUsUEHDS-JWn-198" style="edgeStyle=orthogonalEdgeStyle;rounded=0;orthogonalLoop=1;jettySize=auto;html=1;entryX=0;entryY=0.5;entryDx=0;entryDy=0;exitX=1;exitY=0.5;exitDx=0;exitDy=0;" parent="SxXDG0kKTUsUEHDS-JWn-185" source="SxXDG0kKTUsUEHDS-JWn-188" target="SxXDG0kKTUsUEHDS-JWn-189" edge="1">
          <mxGeometry relative="1" as="geometry">
            <Array as="points">
              <mxPoint x="170" y="200" />
              <mxPoint x="170" y="260" />
            </Array>
          </mxGeometry>
        </mxCell>
        <mxCell id="SxXDG0kKTUsUEHDS-JWn-199" style="edgeStyle=orthogonalEdgeStyle;rounded=0;orthogonalLoop=1;jettySize=auto;html=1;entryX=0;entryY=0.5;entryDx=0;entryDy=0;exitX=1;exitY=0.5;exitDx=0;exitDy=0;" parent="SxXDG0kKTUsUEHDS-JWn-185" source="SxXDG0kKTUsUEHDS-JWn-188" target="SxXDG0kKTUsUEHDS-JWn-191" edge="1">
          <mxGeometry relative="1" as="geometry">
            <Array as="points">
              <mxPoint x="170" y="200" />
              <mxPoint x="170" y="140" />
            </Array>
          </mxGeometry>
        </mxCell>
        <mxCell id="SxXDG0kKTUsUEHDS-JWn-188" value="update_charge_data" style="rounded=1;whiteSpace=wrap;html=1;fillColor=#fff2cc;strokeColor=#d6b656;" parent="SxXDG0kKTUsUEHDS-JWn-185" vertex="1">
          <mxGeometry x="40" y="180" width="120" height="40" as="geometry" />
        </mxCell>
        <mxCell id="SxXDG0kKTUsUEHDS-JWn-189" value="update_stored_charge_cost" style="rounded=1;whiteSpace=wrap;html=1;fillColor=#f5f5f5;strokeColor=#666666;fontColor=#333333;" parent="SxXDG0kKTUsUEHDS-JWn-185" vertex="1">
          <mxGeometry x="190" y="240" width="160" height="40" as="geometry" />
        </mxCell>
        <mxCell id="SxXDG0kKTUsUEHDS-JWn-190" value="get_soc_history" style="rounded=1;whiteSpace=wrap;html=1;fillColor=#f5f5f5;strokeColor=#666666;fontColor=#333333;" parent="SxXDG0kKTUsUEHDS-JWn-185" vertex="1">
          <mxGeometry x="190" y="180" width="100" height="40" as="geometry" />
        </mxCell>
        <mxCell id="SxXDG0kKTUsUEHDS-JWn-191" value="soc_to_available_charge" style="rounded=1;whiteSpace=wrap;html=1;fillColor=#f5f5f5;strokeColor=#666666;fontColor=#333333;" parent="SxXDG0kKTUsUEHDS-JWn-185" vertex="1">
          <mxGeometry x="190" y="120" width="140" height="40" as="geometry" />
        </mxCell>
        <mxCell id="SxXDG0kKTUsUEHDS-JWn-193" style="edgeStyle=orthogonalEdgeStyle;rounded=0;orthogonalLoop=1;jettySize=auto;html=1;entryX=0;entryY=0.75;entryDx=0;entryDy=0;exitX=1;exitY=0.25;exitDx=0;exitDy=0;" parent="1" source="SxXDG0kKTUsUEHDS-JWn-186" target="SxXDG0kKTUsUEHDS-JWn-47" edge="1">
          <mxGeometry relative="1" as="geometry">
            <Array as="points">
              <mxPoint x="660" y="1410" />
              <mxPoint x="660" y="950" />
            </Array>
          </mxGeometry>
        </mxCell>
        <mxCell id="SxXDG0kKTUsUEHDS-JWn-194" style="edgeStyle=orthogonalEdgeStyle;rounded=0;orthogonalLoop=1;jettySize=auto;html=1;entryX=0;entryY=0.75;entryDx=0;entryDy=0;exitX=1;exitY=0.75;exitDx=0;exitDy=0;" parent="1" source="SxXDG0kKTUsUEHDS-JWn-186" target="SxXDG0kKTUsUEHDS-JWn-150" edge="1">
          <mxGeometry relative="1" as="geometry">
            <Array as="points">
              <mxPoint x="600" y="1430" />
              <mxPoint x="600" y="2170" />
            </Array>
          </mxGeometry>
        </mxCell>
        <mxCell id="SxXDG0kKTUsUEHDS-JWn-195" style="edgeStyle=orthogonalEdgeStyle;rounded=0;orthogonalLoop=1;jettySize=auto;html=1;entryX=0;entryY=0.5;entryDx=0;entryDy=0;" parent="1" source="SxXDG0kKTUsUEHDS-JWn-45" target="SxXDG0kKTUsUEHDS-JWn-186" edge="1">
          <mxGeometry relative="1" as="geometry">
            <Array as="points">
              <mxPoint x="200" y="340" />
              <mxPoint x="200" y="1420" />
            </Array>
          </mxGeometry>
        </mxCell>
        <mxCell id="SxXDG0kKTUsUEHDS-JWn-196" style="edgeStyle=orthogonalEdgeStyle;rounded=0;orthogonalLoop=1;jettySize=auto;html=1;entryX=0;entryY=0.5;entryDx=0;entryDy=0;" parent="1" source="SxXDG0kKTUsUEHDS-JWn-45" target="SxXDG0kKTUsUEHDS-JWn-187" edge="1">
          <mxGeometry relative="1" as="geometry">
            <Array as="points">
              <mxPoint x="200" y="340" />
              <mxPoint x="200" y="1480" />
            </Array>
          </mxGeometry>
        </mxCell>
        <mxCell id="SxXDG0kKTUsUEHDS-JWn-200" style="edgeStyle=orthogonalEdgeStyle;rounded=0;orthogonalLoop=1;jettySize=auto;html=1;entryX=0;entryY=0.5;entryDx=0;entryDy=0;" parent="1" source="SxXDG0kKTUsUEHDS-JWn-45" target="SxXDG0kKTUsUEHDS-JWn-188" edge="1">
          <mxGeometry relative="1" as="geometry">
            <Array as="points">
              <mxPoint x="200" y="340" />
              <mxPoint x="200" y="1540" />
            </Array>
          </mxGeometry>
        </mxCell>
        <mxCell id="SxXDG0kKTUsUEHDS-JWn-201" style="edgeStyle=orthogonalEdgeStyle;rounded=0;orthogonalLoop=1;jettySize=auto;html=1;entryX=0;entryY=0.25;entryDx=0;entryDy=0;" parent="1" source="SxXDG0kKTUsUEHDS-JWn-45" target="SxXDG0kKTUsUEHDS-JWn-150" edge="1">
          <mxGeometry relative="1" as="geometry">
            <Array as="points">
              <mxPoint x="640" y="340" />
              <mxPoint x="640" y="2150" />
            </Array>
          </mxGeometry>
        </mxCell>
        <mxCell id="SxXDG0kKTUsUEHDS-JWn-202" style="edgeStyle=orthogonalEdgeStyle;rounded=0;orthogonalLoop=1;jettySize=auto;html=1;entryX=0;entryY=0.5;entryDx=0;entryDy=0;" parent="1" source="SxXDG0kKTUsUEHDS-JWn-45" target="SxXDG0kKTUsUEHDS-JWn-154" edge="1">
          <mxGeometry relative="1" as="geometry">
            <Array as="points">
              <mxPoint x="640" y="340" />
              <mxPoint x="640" y="1880" />
            </Array>
          </mxGeometry>
        </mxCell>
        <mxCell id="SxXDG0kKTUsUEHDS-JWn-203" style="edgeStyle=orthogonalEdgeStyle;rounded=0;orthogonalLoop=1;jettySize=auto;html=1;entryX=0.5;entryY=0;entryDx=0;entryDy=0;exitX=0.5;exitY=0;exitDx=0;exitDy=0;" parent="1" source="SxXDG0kKTUsUEHDS-JWn-154" target="SxXDG0kKTUsUEHDS-JWn-81" edge="1">
          <mxGeometry relative="1" as="geometry">
            <Array as="points">
              <mxPoint x="1375" y="1840" />
              <mxPoint x="1200" y="1840" />
              <mxPoint x="1200" y="840" />
              <mxPoint x="1460" y="840" />
            </Array>
          </mxGeometry>
        </mxCell>
        <mxCell id="SxXDG0kKTUsUEHDS-JWn-204" style="edgeStyle=orthogonalEdgeStyle;rounded=0;orthogonalLoop=1;jettySize=auto;html=1;entryX=0.5;entryY=0;entryDx=0;entryDy=0;exitX=0.5;exitY=0;exitDx=0;exitDy=0;" parent="1" source="SxXDG0kKTUsUEHDS-JWn-154" target="SxXDG0kKTUsUEHDS-JWn-84" edge="1">
          <mxGeometry relative="1" as="geometry">
            <Array as="points">
              <mxPoint x="1375" y="1840" />
              <mxPoint x="1200" y="1840" />
              <mxPoint x="1200" y="1060" />
              <mxPoint x="1470" y="1060" />
            </Array>
          </mxGeometry>
        </mxCell>
        <mxCell id="SxXDG0kKTUsUEHDS-JWn-205" style="edgeStyle=orthogonalEdgeStyle;rounded=0;orthogonalLoop=1;jettySize=auto;html=1;entryX=0.5;entryY=0;entryDx=0;entryDy=0;" parent="1" source="SxXDG0kKTUsUEHDS-JWn-154" target="SxXDG0kKTUsUEHDS-JWn-180" edge="1">
          <mxGeometry relative="1" as="geometry">
            <Array as="points">
              <mxPoint x="1375" y="1840" />
              <mxPoint x="1200" y="1840" />
              <mxPoint x="1200" y="1460" />
              <mxPoint x="1465" y="1460" />
            </Array>
          </mxGeometry>
        </mxCell>
        <mxCell id="SxXDG0kKTUsUEHDS-JWn-206" style="edgeStyle=orthogonalEdgeStyle;rounded=0;orthogonalLoop=1;jettySize=auto;html=1;entryX=0.5;entryY=0;entryDx=0;entryDy=0;" parent="1" source="SxXDG0kKTUsUEHDS-JWn-154" target="SxXDG0kKTUsUEHDS-JWn-76" edge="1">
          <mxGeometry relative="1" as="geometry">
            <Array as="points">
              <mxPoint x="1375" y="1840" />
              <mxPoint x="1200" y="1840" />
              <mxPoint x="1200" y="620" />
              <mxPoint x="1460" y="620" />
            </Array>
          </mxGeometry>
        </mxCell>
        <mxCell id="SxXDG0kKTUsUEHDS-JWn-207" style="edgeStyle=orthogonalEdgeStyle;rounded=0;orthogonalLoop=1;jettySize=auto;html=1;entryX=1;entryY=0.5;entryDx=0;entryDy=0;" parent="1" source="SxXDG0kKTUsUEHDS-JWn-154" target="SxXDG0kKTUsUEHDS-JWn-49" edge="1">
          <mxGeometry relative="1" as="geometry">
            <Array as="points">
              <mxPoint x="1375" y="1840" />
              <mxPoint x="1200" y="1840" />
              <mxPoint x="1200" y="820" />
            </Array>
          </mxGeometry>
        </mxCell>
        <mxCell id="SxXDG0kKTUsUEHDS-JWn-208" style="edgeStyle=orthogonalEdgeStyle;rounded=0;orthogonalLoop=1;jettySize=auto;html=1;entryX=0;entryY=0.5;entryDx=0;entryDy=0;" parent="1" source="SxXDG0kKTUsUEHDS-JWn-45" target="SxXDG0kKTUsUEHDS-JWn-150" edge="1">
          <mxGeometry relative="1" as="geometry">
            <Array as="points">
              <mxPoint x="640" y="340" />
              <mxPoint x="640" y="2160" />
            </Array>
          </mxGeometry>
        </mxCell>
        <mxCell id="SxXDG0kKTUsUEHDS-JWn-209" style="edgeStyle=orthogonalEdgeStyle;rounded=0;orthogonalLoop=1;jettySize=auto;html=1;entryX=0;entryY=0.25;entryDx=0;entryDy=0;" parent="1" source="SxXDG0kKTUsUEHDS-JWn-45" target="SxXDG0kKTUsUEHDS-JWn-47" edge="1">
          <mxGeometry relative="1" as="geometry">
            <Array as="points">
              <mxPoint x="640" y="340" />
              <mxPoint x="640" y="930" />
            </Array>
          </mxGeometry>
        </mxCell>
        <mxCell id="SxXDG0kKTUsUEHDS-JWn-210" style="edgeStyle=orthogonalEdgeStyle;rounded=0;orthogonalLoop=1;jettySize=auto;html=1;entryX=0;entryY=0.5;entryDx=0;entryDy=0;" parent="1" source="SxXDG0kKTUsUEHDS-JWn-45" target="SxXDG0kKTUsUEHDS-JWn-48" edge="1">
          <mxGeometry relative="1" as="geometry">
            <Array as="points">
              <mxPoint x="640" y="340" />
              <mxPoint x="640" y="760" />
            </Array>
          </mxGeometry>
        </mxCell>
        <mxCell id="SxXDG0kKTUsUEHDS-JWn-226" style="edgeStyle=orthogonalEdgeStyle;rounded=0;orthogonalLoop=1;jettySize=auto;html=1;entryX=0.5;entryY=0;entryDx=0;entryDy=0;exitX=1;exitY=0.75;exitDx=0;exitDy=0;" parent="1" source="SxXDG0kKTUsUEHDS-JWn-114" target="SxXDG0kKTUsUEHDS-JWn-57" edge="1">
          <mxGeometry relative="1" as="geometry">
            <Array as="points">
              <mxPoint x="630" y="740" />
              <mxPoint x="630" y="1000" />
              <mxPoint x="1090" y="1000" />
              <mxPoint x="1090" y="260" />
              <mxPoint x="2430" y="260" />
            </Array>
          </mxGeometry>
        </mxCell>
        <mxCell id="SxXDG0kKTUsUEHDS-JWn-227" style="edgeStyle=orthogonalEdgeStyle;rounded=0;orthogonalLoop=1;jettySize=auto;html=1;entryX=0.5;entryY=0;entryDx=0;entryDy=0;exitX=1;exitY=0.75;exitDx=0;exitDy=0;" parent="1" source="SxXDG0kKTUsUEHDS-JWn-114" target="SxXDG0kKTUsUEHDS-JWn-58" edge="1">
          <mxGeometry relative="1" as="geometry">
            <Array as="points">
              <mxPoint x="630" y="740" />
              <mxPoint x="630" y="1000" />
              <mxPoint x="1090" y="1000" />
              <mxPoint x="1090" y="260" />
              <mxPoint x="2550" y="260" />
            </Array>
          </mxGeometry>
        </mxCell>
        <mxCell id="SxXDG0kKTUsUEHDS-JWn-228" style="edgeStyle=orthogonalEdgeStyle;rounded=0;orthogonalLoop=1;jettySize=auto;html=1;entryX=0.5;entryY=0;entryDx=0;entryDy=0;exitX=1;exitY=0.75;exitDx=0;exitDy=0;" parent="1" source="SxXDG0kKTUsUEHDS-JWn-115" target="SxXDG0kKTUsUEHDS-JWn-51" edge="1">
          <mxGeometry relative="1" as="geometry">
            <Array as="points">
              <mxPoint x="620" y="800" />
              <mxPoint x="620" y="1010" />
              <mxPoint x="1100" y="1010" />
              <mxPoint x="1100" y="270" />
              <mxPoint x="1470" y="270" />
            </Array>
          </mxGeometry>
        </mxCell>
        <mxCell id="SxXDG0kKTUsUEHDS-JWn-229" style="edgeStyle=orthogonalEdgeStyle;rounded=0;orthogonalLoop=1;jettySize=auto;html=1;entryX=0.5;entryY=0;entryDx=0;entryDy=0;exitX=1;exitY=0.75;exitDx=0;exitDy=0;" parent="1" source="SxXDG0kKTUsUEHDS-JWn-115" target="SxXDG0kKTUsUEHDS-JWn-56" edge="1">
          <mxGeometry relative="1" as="geometry">
            <mxPoint x="450" y="800" as="sourcePoint" />
            <Array as="points">
              <mxPoint x="620" y="800" />
              <mxPoint x="620" y="1010" />
              <mxPoint x="1100" y="1010" />
              <mxPoint x="1100" y="270" />
              <mxPoint x="2290" y="270" />
            </Array>
          </mxGeometry>
        </mxCell>
        <mxCell id="SxXDG0kKTUsUEHDS-JWn-230" style="edgeStyle=orthogonalEdgeStyle;rounded=0;orthogonalLoop=1;jettySize=auto;html=1;entryX=0.5;entryY=0;entryDx=0;entryDy=0;exitX=1;exitY=0.75;exitDx=0;exitDy=0;" parent="1" source="SxXDG0kKTUsUEHDS-JWn-115" target="SxXDG0kKTUsUEHDS-JWn-52" edge="1">
          <mxGeometry relative="1" as="geometry">
            <Array as="points">
              <mxPoint x="620" y="800" />
              <mxPoint x="620" y="1010" />
              <mxPoint x="1100" y="1010" />
              <mxPoint x="1100" y="270" />
              <mxPoint x="1610" y="270" />
            </Array>
          </mxGeometry>
        </mxCell>
        <mxCell id="SxXDG0kKTUsUEHDS-JWn-231" style="edgeStyle=orthogonalEdgeStyle;rounded=0;orthogonalLoop=1;jettySize=auto;html=1;entryX=0.5;entryY=0;entryDx=0;entryDy=0;exitX=1;exitY=0.75;exitDx=0;exitDy=0;" parent="1" source="SxXDG0kKTUsUEHDS-JWn-115" target="SxXDG0kKTUsUEHDS-JWn-53" edge="1">
          <mxGeometry relative="1" as="geometry">
            <Array as="points">
              <mxPoint x="620" y="800" />
              <mxPoint x="620" y="1010" />
              <mxPoint x="1100" y="1010" />
              <mxPoint x="1100" y="270" />
              <mxPoint x="1750" y="270" />
            </Array>
          </mxGeometry>
        </mxCell>
        <mxCell id="SxXDG0kKTUsUEHDS-JWn-232" style="edgeStyle=orthogonalEdgeStyle;rounded=0;orthogonalLoop=1;jettySize=auto;html=1;entryX=0.5;entryY=0;entryDx=0;entryDy=0;exitX=1;exitY=0.75;exitDx=0;exitDy=0;" parent="1" source="SxXDG0kKTUsUEHDS-JWn-115" target="SxXDG0kKTUsUEHDS-JWn-55" edge="1">
          <mxGeometry relative="1" as="geometry">
            <Array as="points">
              <mxPoint x="620" y="800" />
              <mxPoint x="620" y="1010" />
              <mxPoint x="1100" y="1010" />
              <mxPoint x="1100" y="270" />
              <mxPoint x="2090" y="270" />
            </Array>
          </mxGeometry>
        </mxCell>
        <mxCell id="SxXDG0kKTUsUEHDS-JWn-233" style="edgeStyle=orthogonalEdgeStyle;rounded=0;orthogonalLoop=1;jettySize=auto;html=1;entryX=0.5;entryY=0;entryDx=0;entryDy=0;exitX=1;exitY=0.75;exitDx=0;exitDy=0;" parent="1" source="SxXDG0kKTUsUEHDS-JWn-116" target="SxXDG0kKTUsUEHDS-JWn-51" edge="1">
          <mxGeometry relative="1" as="geometry">
            <Array as="points">
              <mxPoint x="610" y="860" />
              <mxPoint x="610" y="1020" />
              <mxPoint x="1110" y="1020" />
              <mxPoint x="1110" y="280" />
              <mxPoint x="1470" y="280" />
            </Array>
          </mxGeometry>
        </mxCell>
        <mxCell id="SxXDG0kKTUsUEHDS-JWn-234" style="edgeStyle=orthogonalEdgeStyle;rounded=0;orthogonalLoop=1;jettySize=auto;html=1;exitX=1;exitY=0.75;exitDx=0;exitDy=0;entryX=0.5;entryY=0;entryDx=0;entryDy=0;" parent="1" source="SxXDG0kKTUsUEHDS-JWn-116" target="SxXDG0kKTUsUEHDS-JWn-56" edge="1">
          <mxGeometry relative="1" as="geometry">
            <mxPoint x="2290" y="380" as="targetPoint" />
            <Array as="points">
              <mxPoint x="610" y="860" />
              <mxPoint x="610" y="1020" />
              <mxPoint x="1110" y="1020" />
              <mxPoint x="1110" y="280" />
              <mxPoint x="2290" y="280" />
            </Array>
          </mxGeometry>
        </mxCell>
        <mxCell id="SxXDG0kKTUsUEHDS-JWn-235" style="edgeStyle=orthogonalEdgeStyle;rounded=0;orthogonalLoop=1;jettySize=auto;html=1;entryX=0.5;entryY=0;entryDx=0;entryDy=0;exitX=1;exitY=0.75;exitDx=0;exitDy=0;" parent="1" source="SxXDG0kKTUsUEHDS-JWn-116" target="SxXDG0kKTUsUEHDS-JWn-52" edge="1">
          <mxGeometry relative="1" as="geometry">
            <Array as="points">
              <mxPoint x="610" y="860" />
              <mxPoint x="610" y="1020" />
              <mxPoint x="1110" y="1020" />
              <mxPoint x="1110" y="280" />
              <mxPoint x="1610" y="280" />
            </Array>
          </mxGeometry>
        </mxCell>
        <mxCell id="SxXDG0kKTUsUEHDS-JWn-236" style="edgeStyle=orthogonalEdgeStyle;rounded=0;orthogonalLoop=1;jettySize=auto;html=1;entryX=0.5;entryY=0;entryDx=0;entryDy=0;exitX=1;exitY=0.75;exitDx=0;exitDy=0;" parent="1" source="SxXDG0kKTUsUEHDS-JWn-116" target="SxXDG0kKTUsUEHDS-JWn-53" edge="1">
          <mxGeometry relative="1" as="geometry">
            <Array as="points">
              <mxPoint x="610" y="860" />
              <mxPoint x="610" y="1020" />
              <mxPoint x="1110" y="1020" />
              <mxPoint x="1110" y="280" />
              <mxPoint x="1750" y="280" />
            </Array>
          </mxGeometry>
        </mxCell>
        <mxCell id="SxXDG0kKTUsUEHDS-JWn-237" style="edgeStyle=orthogonalEdgeStyle;rounded=0;orthogonalLoop=1;jettySize=auto;html=1;entryX=0.5;entryY=0;entryDx=0;entryDy=0;exitX=1;exitY=0.75;exitDx=0;exitDy=0;" parent="1" source="SxXDG0kKTUsUEHDS-JWn-117" target="SxXDG0kKTUsUEHDS-JWn-51" edge="1">
          <mxGeometry relative="1" as="geometry">
            <Array as="points">
              <mxPoint x="600" y="920" />
              <mxPoint x="600" y="1030" />
              <mxPoint x="1120" y="1030" />
              <mxPoint x="1120" y="290" />
              <mxPoint x="1470" y="290" />
            </Array>
          </mxGeometry>
        </mxCell>
        <mxCell id="SxXDG0kKTUsUEHDS-JWn-238" style="edgeStyle=orthogonalEdgeStyle;rounded=0;orthogonalLoop=1;jettySize=auto;html=1;entryX=0.5;entryY=0;entryDx=0;entryDy=0;exitX=1;exitY=0.75;exitDx=0;exitDy=0;" parent="1" source="SxXDG0kKTUsUEHDS-JWn-117" target="SxXDG0kKTUsUEHDS-JWn-56" edge="1">
          <mxGeometry relative="1" as="geometry">
            <Array as="points">
              <mxPoint x="600" y="920" />
              <mxPoint x="600" y="1030" />
              <mxPoint x="1120" y="1030" />
              <mxPoint x="1120" y="290" />
              <mxPoint x="2290" y="290" />
            </Array>
          </mxGeometry>
        </mxCell>
        <mxCell id="SxXDG0kKTUsUEHDS-JWn-239" style="edgeStyle=orthogonalEdgeStyle;rounded=0;orthogonalLoop=1;jettySize=auto;html=1;entryX=0.5;entryY=0;entryDx=0;entryDy=0;exitX=1;exitY=0.75;exitDx=0;exitDy=0;" parent="1" source="SxXDG0kKTUsUEHDS-JWn-117" target="SxXDG0kKTUsUEHDS-JWn-52" edge="1">
          <mxGeometry relative="1" as="geometry">
            <Array as="points">
              <mxPoint x="600" y="920" />
              <mxPoint x="600" y="1030" />
              <mxPoint x="1120" y="1030" />
              <mxPoint x="1120" y="290" />
              <mxPoint x="1610" y="290" />
            </Array>
          </mxGeometry>
        </mxCell>
        <mxCell id="SxXDG0kKTUsUEHDS-JWn-240" style="edgeStyle=orthogonalEdgeStyle;rounded=0;orthogonalLoop=1;jettySize=auto;html=1;entryX=0.5;entryY=0;entryDx=0;entryDy=0;exitX=1;exitY=0.75;exitDx=0;exitDy=0;" parent="1" source="SxXDG0kKTUsUEHDS-JWn-117" target="SxXDG0kKTUsUEHDS-JWn-53" edge="1">
          <mxGeometry relative="1" as="geometry">
            <Array as="points">
              <mxPoint x="600" y="920" />
              <mxPoint x="600" y="1030" />
              <mxPoint x="1120" y="1030" />
              <mxPoint x="1120" y="290" />
              <mxPoint x="1750" y="290" />
            </Array>
          </mxGeometry>
        </mxCell>
        <mxCell id="SxXDG0kKTUsUEHDS-JWn-241" style="edgeStyle=orthogonalEdgeStyle;rounded=0;orthogonalLoop=1;jettySize=auto;html=1;entryX=0.5;entryY=0;entryDx=0;entryDy=0;exitX=1;exitY=0.75;exitDx=0;exitDy=0;" parent="1" source="SxXDG0kKTUsUEHDS-JWn-118" target="SxXDG0kKTUsUEHDS-JWn-56" edge="1">
          <mxGeometry relative="1" as="geometry">
            <Array as="points">
              <mxPoint x="590" y="980" />
              <mxPoint x="590" y="1040" />
              <mxPoint x="1130" y="1040" />
              <mxPoint x="1130" y="300" />
              <mxPoint x="2290" y="300" />
            </Array>
          </mxGeometry>
        </mxCell>
        <mxCell id="SxXDG0kKTUsUEHDS-JWn-242" style="edgeStyle=orthogonalEdgeStyle;rounded=0;orthogonalLoop=1;jettySize=auto;html=1;entryX=0.5;entryY=0;entryDx=0;entryDy=0;exitX=1;exitY=0.75;exitDx=0;exitDy=0;" parent="1" source="SxXDG0kKTUsUEHDS-JWn-118" target="SxXDG0kKTUsUEHDS-JWn-52" edge="1">
          <mxGeometry relative="1" as="geometry">
            <Array as="points">
              <mxPoint x="590" y="980" />
              <mxPoint x="590" y="1040" />
              <mxPoint x="1130" y="1040" />
              <mxPoint x="1130" y="300" />
              <mxPoint x="1610" y="300" />
            </Array>
          </mxGeometry>
        </mxCell>
        <mxCell id="SxXDG0kKTUsUEHDS-JWn-243" style="edgeStyle=orthogonalEdgeStyle;rounded=0;orthogonalLoop=1;jettySize=auto;html=1;entryX=0.5;entryY=0;entryDx=0;entryDy=0;exitX=1;exitY=0.75;exitDx=0;exitDy=0;" parent="1" source="SxXDG0kKTUsUEHDS-JWn-118" target="SxXDG0kKTUsUEHDS-JWn-53" edge="1">
          <mxGeometry relative="1" as="geometry">
            <Array as="points">
              <mxPoint x="590" y="980" />
              <mxPoint x="590" y="1040" />
              <mxPoint x="1130" y="1040" />
              <mxPoint x="1130" y="300" />
              <mxPoint x="1750" y="300" />
            </Array>
          </mxGeometry>
        </mxCell>
        <mxCell id="SxXDG0kKTUsUEHDS-JWn-244" style="edgeStyle=orthogonalEdgeStyle;rounded=0;orthogonalLoop=1;jettySize=auto;html=1;entryX=0.5;entryY=0;entryDx=0;entryDy=0;" parent="1" source="SxXDG0kKTUsUEHDS-JWn-119" target="SxXDG0kKTUsUEHDS-JWn-51" edge="1">
          <mxGeometry relative="1" as="geometry">
            <Array as="points">
              <mxPoint x="1140" y="1090" />
              <mxPoint x="1140" y="310" />
              <mxPoint x="1470" y="310" />
            </Array>
          </mxGeometry>
        </mxCell>
        <mxCell id="SxXDG0kKTUsUEHDS-JWn-246" style="edgeStyle=orthogonalEdgeStyle;rounded=0;orthogonalLoop=1;jettySize=auto;html=1;entryX=0.5;entryY=0;entryDx=0;entryDy=0;" parent="1" source="SxXDG0kKTUsUEHDS-JWn-190" target="SxXDG0kKTUsUEHDS-JWn-54" edge="1">
          <mxGeometry relative="1" as="geometry">
            <Array as="points">
              <mxPoint x="1150" y="1540" />
              <mxPoint x="1150" y="320" />
              <mxPoint x="1890" y="320" />
            </Array>
          </mxGeometry>
        </mxCell>
        <mxCell id="SxXDG0kKTUsUEHDS-JWn-247" style="edgeStyle=orthogonalEdgeStyle;rounded=0;orthogonalLoop=1;jettySize=auto;html=1;entryX=0.5;entryY=0;entryDx=0;entryDy=0;" parent="1" source="SxXDG0kKTUsUEHDS-JWn-50" target="SxXDG0kKTUsUEHDS-JWn-54" edge="1">
          <mxGeometry relative="1" as="geometry">
            <Array as="points">
              <mxPoint x="1160" y="700" />
              <mxPoint x="1160" y="330" />
              <mxPoint x="1890" y="330" />
            </Array>
          </mxGeometry>
        </mxCell>
        <mxCell id="SxXDG0kKTUsUEHDS-JWn-248" style="edgeStyle=orthogonalEdgeStyle;rounded=0;orthogonalLoop=1;jettySize=auto;html=1;entryX=0.5;entryY=0;entryDx=0;entryDy=0;" parent="1" source="SxXDG0kKTUsUEHDS-JWn-113" target="SxXDG0kKTUsUEHDS-JWn-132" edge="1">
          <mxGeometry relative="1" as="geometry">
            <Array as="points">
              <mxPoint x="1000" y="1150" />
              <mxPoint x="1000" y="1690" />
              <mxPoint x="1360" y="1690" />
            </Array>
          </mxGeometry>
        </mxCell>
        <mxCell id="SxXDG0kKTUsUEHDS-JWn-249" style="edgeStyle=orthogonalEdgeStyle;rounded=0;orthogonalLoop=1;jettySize=auto;html=1;entryX=0.5;entryY=0;entryDx=0;entryDy=0;" parent="1" source="SxXDG0kKTUsUEHDS-JWn-113" target="SxXDG0kKTUsUEHDS-JWn-133" edge="1">
          <mxGeometry relative="1" as="geometry">
            <Array as="points">
              <mxPoint x="1000" y="1150" />
              <mxPoint x="1000" y="1690" />
              <mxPoint x="1460" y="1690" />
            </Array>
          </mxGeometry>
        </mxCell>
        <mxCell id="SxXDG0kKTUsUEHDS-JWn-250" style="edgeStyle=orthogonalEdgeStyle;rounded=0;orthogonalLoop=1;jettySize=auto;html=1;entryX=0.5;entryY=0;entryDx=0;entryDy=0;" parent="1" source="SxXDG0kKTUsUEHDS-JWn-45" target="SxXDG0kKTUsUEHDS-JWn-133" edge="1">
          <mxGeometry relative="1" as="geometry">
            <Array as="points">
              <mxPoint x="640" y="340" />
              <mxPoint x="640" y="1680" />
              <mxPoint x="1460" y="1680" />
            </Array>
          </mxGeometry>
        </mxCell>
        <mxCell id="SxXDG0kKTUsUEHDS-JWn-251" style="edgeStyle=orthogonalEdgeStyle;rounded=0;orthogonalLoop=1;jettySize=auto;html=1;entryX=0.5;entryY=0;entryDx=0;entryDy=0;" parent="1" source="SxXDG0kKTUsUEHDS-JWn-113" target="SxXDG0kKTUsUEHDS-JWn-134" edge="1">
          <mxGeometry relative="1" as="geometry">
            <Array as="points">
              <mxPoint x="1000" y="1150" />
              <mxPoint x="1000" y="1690" />
              <mxPoint x="1560" y="1690" />
            </Array>
          </mxGeometry>
        </mxCell>
        <mxCell id="SxXDG0kKTUsUEHDS-JWn-252" style="edgeStyle=orthogonalEdgeStyle;rounded=0;orthogonalLoop=1;jettySize=auto;html=1;entryX=0.5;entryY=0;entryDx=0;entryDy=0;" parent="1" source="SxXDG0kKTUsUEHDS-JWn-45" target="SxXDG0kKTUsUEHDS-JWn-134" edge="1">
          <mxGeometry relative="1" as="geometry">
            <Array as="points">
              <mxPoint x="640" y="340" />
              <mxPoint x="640" y="1680" />
              <mxPoint x="1560" y="1680" />
            </Array>
          </mxGeometry>
        </mxCell>
        <mxCell id="SxXDG0kKTUsUEHDS-JWn-253" style="edgeStyle=orthogonalEdgeStyle;rounded=0;orthogonalLoop=1;jettySize=auto;html=1;entryX=0.5;entryY=0;entryDx=0;entryDy=0;" parent="1" source="SxXDG0kKTUsUEHDS-JWn-186" target="SxXDG0kKTUsUEHDS-JWn-134" edge="1">
          <mxGeometry relative="1" as="geometry">
            <Array as="points">
              <mxPoint x="680" y="1420" />
              <mxPoint x="680" y="1670" />
              <mxPoint x="1560" y="1670" />
            </Array>
          </mxGeometry>
        </mxCell>
        <mxCell id="SxXDG0kKTUsUEHDS-JWn-107" style="edgeStyle=orthogonalEdgeStyle;rounded=0;orthogonalLoop=1;jettySize=auto;html=1;entryX=0;entryY=0.5;entryDx=0;entryDy=0;exitX=1;exitY=0.5;exitDx=0;exitDy=0;" parent="1" source="SxXDG0kKTUsUEHDS-JWn-88" target="SxXDG0kKTUsUEHDS-JWn-97" edge="1">
          <mxGeometry relative="1" as="geometry">
            <Array as="points">
              <mxPoint x="2010" y="1260" />
              <mxPoint x="2010" y="1290" />
            </Array>
            <mxPoint x="1880" y="1250" as="sourcePoint" />
            <mxPoint x="2280" y="1260" as="targetPoint" />
          </mxGeometry>
        </mxCell>
        <mxCell id="SxXDG0kKTUsUEHDS-JWn-109" style="edgeStyle=orthogonalEdgeStyle;rounded=0;orthogonalLoop=1;jettySize=auto;html=1;entryX=0;entryY=0.5;entryDx=0;entryDy=0;exitX=1;exitY=0.5;exitDx=0;exitDy=0;" parent="1" source="SxXDG0kKTUsUEHDS-JWn-89" target="SxXDG0kKTUsUEHDS-JWn-97" edge="1">
          <mxGeometry relative="1" as="geometry">
            <Array as="points">
              <mxPoint x="2010" y="1320" />
              <mxPoint x="2010" y="1290" />
            </Array>
            <mxPoint x="1860" y="1340" as="sourcePoint" />
            <mxPoint x="2280" y="1330" as="targetPoint" />
          </mxGeometry>
        </mxCell>
        <mxCell id="lTU__3Vwd_L7iFK3x-IH-1" style="edgeStyle=orthogonalEdgeStyle;rounded=0;orthogonalLoop=1;jettySize=auto;html=1;entryX=0;entryY=0.5;entryDx=0;entryDy=0;" parent="1" source="SxXDG0kKTUsUEHDS-JWn-45" target="Y3HNoDgw4dzIJGGibzqn-1" edge="1">
          <mxGeometry relative="1" as="geometry">
            <Array as="points">
              <mxPoint x="640" y="340" />
              <mxPoint x="640" y="880" />
            </Array>
          </mxGeometry>
        </mxCell>
      </root>
    </mxGraphModel>
  </diagram>
</mxfile>
